/* XPM */
static char *a455037a580d4be6f8729823ff97b0f6eLn2HRvgLmBuCRDR[] = {
/* columns rows colors chars-per-pixel */
"64 64 144 2 ",
"   c None",
".  c #010100",
"X  c #0B0B00",
"o  c #00010A",
"O  c #151500",
"+  c #1B1C00",
"@  c #212100",
"#  c #2D2E00",
"$  c #323301",
"%  c #373800",
"&  c #3B3C00",
"*  c #02032D",
"=  c #010234",
"-  c #00003B",
";  c #0F1033",
":  c #121333",
">  c #1B1C33",
",  c #1F2033",
"<  c #31322F",
"1  c #232433",
"2  c #424300",
"3  c #4C4D00",
"4  c #535400",
"5  c #575800",
"6  c #595A00",
"7  c #5F6000",
"8  c #636400",
"9  c #676800",
"0  c #696B01",
"q  c #6F7100",
"w  c #727300",
"e  c #777900",
"r  c #7B7C00",
"t  c #444525",
"y  c #44462B",
"u  c #47482A",
"i  c #4F5128",
"p  c #555727",
"a  c #6B6E22",
"s  c #6E7021",
"d  c #B51700",
"f  c #B51800",
"g  c #B52700",
"h  c #B53200",
"j  c #FF2200",
"k  c #FF3700",
"l  c #FF3800",
"z  c #B56B00",
"x  c #FF4600",
"c  c #FF4800",
"v  c #FF7500",
"b  c #FF7A00",
"n  c #439101",
"m  c #4B9A09",
"M  c #7F8100",
"N  c #57A715",
"B  c #5BAB19",
"V  c #62B21F",
"C  c #64B521",
"Z  c #6ABB26",
"A  c #6DBF2A",
"S  c #6FC02B",
"D  c #77C327",
"F  c #7CC626",
"G  c #71C029",
"H  c #818300",
"J  c #878800",
"K  c #8A8C00",
"L  c #8E9000",
"P  c #949700",
"I  c #979A00",
"U  c #9A9C01",
"Y  c #85871C",
"T  c #A1A300",
"R  c #A6A900",
"E  c #ABAD00",
"W  c #AFB100",
"Q  c #B2B400",
"!  c #B7B901",
"~  c #BABD00",
"^  c #FF9400",
"/  c #FF9D00",
"(  c #8BC616",
")  c #92CF1F",
"_  c #97D21E",
"`  c #98D21D",
"'  c #A0D61B",
"]  c #A6D919",
"[  c #B3DF16",
"{  c #BCE313",
"}  c #80C725",
"|  c #81C824",
" . c #8BCC22",
".. c #91CF20",
"X. c #C4C600",
"o. c #C6C900",
"O. c #CACD00",
"+. c #CED100",
"@. c #D0D300",
"#. c #D5D800",
"$. c #DBDE00",
"%. c #CFEB0D",
"&. c #DEE102",
"*. c #D1EC0C",
"=. c #C5E710",
"-. c #E1E503",
";. c #E6EA01",
":. c #EAEE01",
">. c #E5F507",
",. c #EEF201",
"<. c #E8F706",
"1. c #ECF804",
"2. c #EDF904",
"3. c #EEF904",
"4. c #E1F308",
"5. c #E2F408",
"6. c #F1F400",
"7. c #F3F700",
"8. c #F1F502",
"9. c #F2F600",
"0. c #F0FA03",
"q. c #F4F800",
"w. c #F5F900",
"e. c #F5F901",
"r. c #F7FB00",
"t. c #F6FA01",
"y. c #F7FB01",
"u. c #F3FC02",
"i. c #F7FD01",
"p. c #F7FE01",
"a. c #F5F900",
"s. c #F8FC00",
"d. c #F9FD00",
"f. c #FAFD00",
"g. c #F9FE01",
"h. c #FAFE00",
"j. c #FBFE00",
"k. c #FAFF00",
"l. c #FBFF00",
"z. c #FCFF00",
"x. c #FDFF00",
"c. c #FEFF00",
"v. c yellow",
"b. c #FDFF00",
/* pixels */
"                                                                                                                                ",
"                                                                                                                                ",
"                                                                                                                                ",
"                                                                                                                                ",
"                                                                . .                                                             ",
"                                                                . .                                                             ",
"                                                            . . . . . .                                                         ",
"                                                            . . . . . . .                                                       ",
"                                                          . . . . . . . .                                                       ",
"                                                      . . . . . . . . . . . .                                                   ",
"                                                      . . . . . . . . . . . .                                                   ",
"                                                      . . O # # # # # # + . .                                                   ",
"                                                      . . 3 E E R R R E 8 . .                                                   ",
"                                                      . . 3 E E E E E W 0 . .                                                   ",
"                                                      . . 3 E Q +.@.! W 0 . .                                                   ",
"                                                      . . 3 E ~ t.z.o.W 8 . .                                                   ",
"                                                      . . 3 E ~ t.k.X.Q 0 . .                                                   ",
"                                                      . . 8 ;.;.y.z.:.;.J . .                                                   ",
"                                                      . . w z.z.z.z.z.z.U . .                                                   ",
"                                                      . . q z.z.z.k.z.z.I . .                                                   ",
"                                                  . . . . w z.k.k.z.k.z.U . . . .                                               ",
"                                                  . . . . 0 z.z.z.k.z.z.I . . . .                                               ",
"                                                  2 2 2 2 P z.z.k.z.z.z.Q 2 2 2 2 #                                             ",
"                                              . $ ;.t.q.q.y.k.z.z.z.z.z.g.e.e.e.8.5 . .                                         ",
"                                              . $ ,.k.k.z.k.z.k.z.z.z.z.z.k.z.z.g.4 o .                                         ",
"                                            5 r P 0.k.k.k.z.z.0.{ { <.z.k.z.z.k.g.R e 8                                         ",
"                              . . . . . . . Y i.z.z.k.z.z.k.z.5.D A *.z.k.z.k.z.b.b.b.R . . . . . . .                           ",
"                              . . . . . . . z i.z.k.z.k.z.k.z.4.D A *.k.k.k.z.k.g.b.b.R . . X . . . .                           ",
"            . .           . . 3 r K E W W W #.i.z.k.z.k.z.%._ ..A A  ._ =.z.k.z.v.i.i.-.W W W W P e 6 . .           . .         ",
"            . .           . . 7 Q o.b.b.b.b.i.i.z.z.k.z.z.{ A A A A A Z ' z.z.k.v.v.b.b.b.b.b.b.@.Q M . .           . .         ",
"            . .           . o 4 U E -.-.-.-.-.-.;.k.k.0.3.[ A A A A A A ' 3.3.k.i.<.-.-.-.-.-.-.! U q o .           . .         ",
"            . . . . . . . * = ; > > 1 1 1 1 1 1 i ,.g.' } D A A A A A A D F ..3.i.a , 1 1 1 1 1 > > : = * o . . . . . .         ",
"            . . . . . . . = - - - - - - - - - - < ,.g...A A G A G A A A D A } 3.z.p - - - - - - - - - - - o . . . . . .         ",
"            . . O $ # # $ t u u u u u u u u u y a 8.g...A Z C C A A A A A A } <.z.Y y u u u u u u u u u y $ # # $ @ . .         ",
"            . . 8 W E R E ;.y.t.y.t.y.q.t.t.t.t.e.g.g...A B n m A A A A A A } 3.z.y.q.t.t.y.q.y.t.y.t.t.6.! R E E r X .         ",
"            . . 8 ! Q E ! 6.z.z.z.z.z.z.z.z.z.z.b.b.e...Z B n m Z A A A A A F 3.z.z.z.z.z.z.z.z.z.z.z.z.k.~ E E Q H . .         ",
"            . . $ 6 6 6 6 r H H H H H H H H H H U q.g.=.[ ( N B A A A A  .[ { 0.z.E H H H H H H H H H H H 6 6 6 6 2 . .         ",
"            . . . . . . . . . . . . . . . . . . $ ,.z.z.z.[ A A A A A A ] z.z.z.k.4 . . . . . . . . . . . . . . . . . .         ",
"            . . . . . . . . . . . . . . . . . . % :.y.k.z.=.A A A D A A ] z.z.y.q.6 . . . X . . . . . . . . . . . . . .         ",
"            . . .         . . 2 r J W ! Q Q Q ! U 3 4 +.z.3.*.*.*.*.*.*.5.z.;.6 3 K ! W Q Q Q Q P r 4 . .           . .         ",
"            . .           . . 8 ! X.z.z.z.z.z.z.o.X . ~ z.z.z.z.z.z.z.z.z.z.$.O . R z.z.z.z.z.z.@.Q r . .           . .         ",
"            . .           . . 4 U E &.&.t.z.z.z.O.# @ E ;.;.6.q.z.z.q.q.:.-.X.$ + W z.z.z.y.;.&.! U w . .           . .         ",
"                              O O O @ # O.z.z.z.y.&.#.4 O 8 ! X.q.z.O.! r + & o.$.6.z.z.z.;.& + O O O                           ",
"                              . . . . X o.z.z.z.z.z.k.2 . 3 Q ~ y.z.X.Q 0 . @ ;.z.z.z.z.z.;.@ . . . .                           ",
"                                . . . X U ! O.;.$.! Q & . 2 r K $.;.U r 5 . @ R ! #.;.#.! E @ . . . .                           ",
"                                        X . 5 ! J O .       . @ T E % . .     X X e Q e X .                                     ",
"                                        . . 4 ! K X .       . + T E $ . .     . . w ! w . .                                     ",
"                                          . & 5 3 X         . O 4 5 + . .       . 2 6 2 .                                       ",
"                                              . .           . . . . . . .         . . .                                         ",
"                                              . .           . . . X . . .         . . .                                         ",
"                                                            d g z z h f f                                                       ",
"                                                            j l ^ / c j j                                                       ",
"                                                            j k ^ / x j j                                                       ",
"                                                            j k ^ / x j j                                                       ",
"                                                            j l ^ / x j j                                                       ",
"                                                            j k v v x j                                                         ",
"                                                                j j                                                             ",
"                                                                j j                                                             ",
"                                                                                                                                ",
"                                                                                                                                ",
"                                                                                                                                ",
"                                                                                                                                ",
"                                                                                                                                ",
"                                                                                                                                "
};
