/* XPM */
static char *fee9c932d4154d87d332f937a8b33e16EUGCY2scruCzPoTm[] = {
/* columns rows colors chars-per-pixel */
"64 64 172 2 ",
"   c #010102",
".  c #0C0C00",
"X  c #05030B",
"o  c #0B0A09",
"O  c #131401",
"+  c #171901",
"@  c #1A1A01",
"#  c #070410",
"$  c #090513",
"%  c #0C071A",
"&  c #0E091C",
"*  c #110D1B",
"=  c #1C1813",
"-  c #191519",
";  c #1F2000",
":  c #232301",
">  c #272800",
",  c #2B2B01",
"<  c #343500",
"1  c #3C3D00",
"2  c #3A3908",
"3  c #242113",
"4  c #282416",
"5  c #010027",
"6  c #0F0921",
"7  c #03032D",
"8  c #100A24",
"9  c #140C2C",
"0  c #16162B",
"q  c #040437",
"w  c #0B0B36",
"e  c #040438",
"r  c #170D32",
"t  c #180E35",
"y  c #170C39",
"u  c #190E3C",
"i  c #1B1537",
"p  c #3E0E25",
"a  c #35102F",
"s  c #3C102D",
"d  c #24262D",
"f  c #292B2D",
"g  c #2E302B",
"h  c #76131F",
"j  c #592214",
"k  c #461027",
"l  c #5C1325",
"z  c #621324",
"x  c #701321",
"c  c #3F4000",
"v  c #414200",
"b  c #464800",
"n  c #4B4C01",
"m  c #4F5100",
"M  c #525301",
"N  c #5D5E00",
"B  c #5B5B08",
"V  c #4C5810",
"C  c #5A5916",
"Z  c #5F6000",
"A  c #636500",
"S  c #6C6D00",
"D  c #737401",
"F  c #777901",
"G  c #7B7D00",
"H  c #646618",
"J  c #62631F",
"K  c #5F6120",
"L  c #616320",
"P  c #607E25",
"I  c #1B0F44",
"U  c #1D1144",
"Y  c #1F124B",
"T  c #211354",
"R  c #25145D",
"E  c #352959",
"W  c #241960",
"Q  c #2D1F7A",
"!  c #2E207C",
"~  c #433472",
"^  c #880E07",
"/  c #981D00",
"(  c #AA1714",
")  c #9B2317",
"_  c #A83235",
"`  c #CD180B",
"'  c #DA1908",
"]  c #E81B07",
"[  c #F01D03",
"{  c #F13303",
"}  c #FE3300",
"|  c #FE3900",
" . c #985500",
".. c #BF492B",
"X. c #EF5004",
"o. c #F55302",
"O. c #F7771C",
"+. c #84345D",
"@. c #D77641",
"#. c #D87741",
"$. c #4A9B04",
"%. c #7F8100",
"&. c #57A80F",
"*. c #65B519",
"=. c #74BC14",
"-. c #6CBE24",
";. c #6EC025",
":. c #74C223",
">. c #7AC522",
",. c #7FC820",
"<. c #828300",
"1. c #868900",
"2. c #8C8E00",
"3. c #8F9001",
"4. c #939500",
"5. c #979900",
"6. c #9A9C00",
"7. c #828418",
"8. c #9EA000",
"9. c #9EA011",
"0. c #A2A400",
"q. c #A7A901",
"w. c #AAAC00",
"e. c #AEB100",
"r. c #B2B500",
"t. c #B7B900",
"y. c #B9BC00",
"u. c #A1A511",
"i. c #FD8701",
"p. c #FE8E00",
"a. c #FE9500",
"s. c #FEAF31",
"d. c #82C91E",
"f. c #8CCD1C",
"g. c #92D01A",
"h. c #BFC200",
"j. c #B4DD0B",
"k. c #A8DA12",
"l. c #B2DE10",
"z. c #B6E10D",
"x. c #BBE20E",
"c. c #81C820",
"v. c #C4C600",
"b. c #C7CA00",
"n. c #CECF00",
"m. c #CFD100",
"M. c #D2D500",
"N. c #D6D800",
"B. c #DADD00",
"V. c #C4E70C",
"C. c #CDEA09",
"Z. c #DFE000",
"A. c #D6EE07",
"S. c #D2ED08",
"D. c #DCF105",
"F. c #E3E500",
"G. c #E6E901",
"H. c #EAEB00",
"J. c #E6F502",
"K. c #ECF301",
"L. c #ECF802",
"P. c #F2F400",
"I. c #F5FA00",
"U. c #FAFE00",
"Y. c #FAE560",
"T. c #FEE861",
"R. c #4F3E84",
"E. c #8C74DB",
"W. c #009ADC",
"Q. c #24D0DA",
"!. c #27E3EF",
"~. c #28E9F5",
/* pixels */
"t t t t Y Y t t t t t t t t t t t t t t t t t t t t t Y Y t t t t t t t Y Y t t t t t t t t t t t t t t t t t t t t t t Y Y t t ",
"t t t R R Y t t t t t t t t t t t R t t t t t t t t R R Y t ~ t t t t R R Y t t t t t t t t t t t R t t t t t t t t t R R Y t t ",
"t t R ! R t t t E.t t t t t t ~ t t t t t t R.t t ! ! R t ~ E.~ t t R ! R t t t E.t t t t t t ~ t t t t t t R.t t t R ! R t t t ",
"t Y R R t t t t t t #.t t R.t t t t t t t t t t R ! ! t t t ~ t t Y R R t t t t t t #.t t R.t t t t t t t t t t t Y R R t t t t ",
"t Y Y t t t t t t #.T.#.t t t t t t t t t t t ~.R R t t t t t t t Y Y t t t t t t #.T.#.t t t t t t t t t t t ~.t Y Y t t t t t ",
"t t t t t t t t t t #.R t t t t t t ! t t t t R Y t t t t t t t t t t t t t t t t t #.R t t t t t t ! t t t t R t t t t t t t t ",
"t t t t t t t t t R ! R t t t t t t t t t t t t t t R.t t t t r % & 9 t t t t t t R Q R t t t t t t t t t t t t t t t t t t t t ",
"t R t t t t t t t R R t t t t t T.t t t t t t t t t t t t t t 9   X 9 t t t t t t R R t t t t t T.t t t t t t t t R t t t t t t ",
"t t t ~ t t t t t t t t t t t t t t t t R R t t t t t t R.r 9 8     6 E 9 t t t t t t t t t t t t t t t R R t t t t t ~ t t t t ",
"t t t t t R.t t t t t t t t t t t t t t R ! R t t t t t t 8 X       X # 9 R.t t t t t t t t t t t t t t R ! R t t t t t t R.t t ",
"t t t t t t t t t t t Y Y t t t t t t t t R R t t t t !.r 6             6 r t t t t t Y Y t t t t t t t t R R t t t t t t t t t ",
"! t t t t t t t t t R R Y t R.t t t W.t t t t t t t t I % X             X % 9 t t t R R Y t R.t t t W.t t t t t ! t t t t t t t ",
"t t t t t t t t t Y R R t t t t t W.~.W.t t ~ t t t t 6 X                   8 t t Y R R t t t t t W.~.W.t t ~ t t t t t t t t t ",
"t t T.t t t t t t Y Y t t t t t t t W.t t ~ E.~ t t t &   . : : > : > @ .   6 r t Y Y t t t t t t t W.t t ~ E.~ t t T.t t t t t ",
"t t t t t t t t t t t t t t t t t t t t t t ~ t R t t 8   < 6.q.w.q.q.4.<   6 t t t t t t t t t t t t t t t ~ t t t t t t t t t ",
"t t t t t t t t t t t t t t t t t t t t t t t t R t t & X < 8.e.r.r.r.4.<   9 t t t t t t t t t t t t t t t t t t t t t t t t t ",
"t t t t t t t t Y Y t t t t t t t Y Y t t t t t t t t 6   < 8.t.B.B.t.4.<   6 t Y Y t t t t t t t T Y t t t t t t t t t t t t t ",
"E.t t O.t t t R R Y t ~ t t t t R R Y t t t t t t t t 9 X < 8.y.U.P.h.4.<   6 R R Y t ~ t t t t R R Y t t t t t t t t Y Y Y t t ",
"t t O.T.O.t ! ! R t ~ E.~ t t R ! R t t t t t t t t r y X v t.M.I.I.M.e.c X T ! R t ~ E.~ t t R Q R t t t t t t t t t R ! R t t ",
"R t t O.t R ! ! t t u ~ t t Y R R t t t t t t t t R.r u X m Z.P.U.U.I.m.b X T ! t t t ~ t t Y R R t t t t t t t t R.t R R R t t ",
"R R t t Y R R t t t t t t t Y Y t t t t t t t t t r r 9   m G.U.U.U.U.N.n   u r t t t t t t Y Y t t t t t t t t t t t Y Y Y ..t ",
"R R t t Y Y t t t t t t t t t t t t t t t t t t t 8 X X   M G.U.U.U.U.N.n   X X 8 t t t t t t t t t u t t t t t t t t t t ..T...",
"R R t t t t t R.t t t t t t t t t t t t t t t t r 6       m F.U.U.U.U.N.n       8 t t t t t t t t t t t t t t t t t t R Y t ..t ",
"t t t t t t t t t t t t t t t t t R t t t t t 9 8 4 n n n <.K.U.U.U.U.F.<.n n n 4 8 9 t t t R t t t t t t t t t t t t t t t t t ",
"~.t t t t t t t E.t t t t t t ~ t t t t t t R.% . A K.I.I.U.U.U.U.U.U.U.U.I.I.P.N   & t t t t t ~ t t t t t t E.t t t t t t t t ",
"t t t R.t t t t t t @.t t R.t t t r 9 9 9 9 r = : F P.U.U.U.U.U.L.L.U.U.U.U.U.U.D : - r r 9 9 9 r t R.t t #.t t Y Y t ~ t t t ! ",
"t t t t t t t t t #.T.#.t t t t r & $ # # # $ P r.M.U.U.U.U.U.L.k.k.J.U.U.U.U.U.n.q.B % # # # # % r t t #.T.#.t R Y ~ E.~ t t t ",
"t R R t t t t t t t @.R t t t t 9 X           1.U.U.U.U.U.U.U.J.:.c.D.U.U.U.U.U.U.I.2.X         X t t t R #.t t R Y t ~ t t t t ",
"t R R R R t t t 9 u W T t t r 6 - 2 m Z S S S t.U.U.U.U.U.L.V.l.:.:.l.V.L.U.U.U.U.U.y.S S S A m 2 & 8 r R ! T 8 9 9 t t t t R.t ",
"t t R ! R t t t 6 X 8 9 t t r X > D e.M.G.G.H.P.U.U.U.U.U.S.d.>.:.:.:.f.A.U.U.U.U.U.I.H.F.H.n.w.F o X 9 t R T $   8 t t t t t t ",
"t t R R R R t t 6   $ 9 r 9 9   + D q.m.G.G.G.G.H.P.I.U.I.V.>.;.;.;.-.c.V.I.U.U.K.G.G.G.G.G.m.q.F     9 9 r 9 #   8 t t t t t t ",
"t t R R R R t u 6     X X X X 5 q 9 0 f f f f f g 7.P.S.g.,.;.;.;.;.;.:.c.g.A.U.%.d f f f f d 0 0 7 5 X X X X     8 t t t R R t ",
"t R.t t t t t r 8             q e q q q e q q q w L P.V.>.-.-.-.;.;.;.;.-.>.C.U.K e q q q q q q q e q             8 t t R Q R t ",
"t t t t t t t r &   O 1 v v b C L J J J J J J J L u.I.V.>.-.&.*.-.;.;.;.;.>.C.U.9.K L L L L J J L J C n v v 1 O   6 t t R R t t ",
"t t Y t ~ t t r 8   1 5.w.w.r.P.U.I.U.I.I.U.I.I.U.U.U.V.>.*.$.$.-.;.;.;.-.>.C.U.U.U.I.U.U.I.I.I.I.I.P.t.w.w.4.<   8 t t t t ~.t ",
"t Y ! Y t t t Y 8   < <.2.4.4.b.n.n.n.n.n.n.n.n.m.F.U.C.f.=.$.&.-.;.;.;.,.g.A.U.Z.m.m.m.n.n.m.n.n.M.b.5.2.4.G ,   E t t t t t t ",
"t t Y t t t t Y 6   . > , , < 1 v v v v v v v v b 2.I.L.D.j.=.*.;.;.;.,.z.D.I.U.1.c c b v v v v v v 1 < > , : .   8 t t t t t t ",
"t t t t t t t t 6                               o A P.U.U.S.>.-.;.:.;.d.S.U.U.I.Z                                 8 t t t ! t t ",
"t t t t t t t t 8   * % % % %   . j N D G <.%.<.%.%.G e.P.J.x.z.z.z.z.x.J.I.0.G %.%. .G %.<.D N v     % % % %     6 t t t t t t ",
"t t t t t t t t &   # 9 r r r   + G r.B.P.P.P.P.H.4.. A F.U.U.U.I.U.U.I.U.H.m . 8.L.L.P.P.P.N.r.G .   9 T R 9 #   8 ~ t t t t t ",
"t t t t Y Y t t 6 X % r r ~ r X + D q.b.G.I.U.U.I.6.; A M.H.P.P.U.U.I.L.H.M.M @ q.U.U.U.P.F.b.0.D o X 9 R R 9 % X 8 t t Y Y t t ",
"t t t R R Y t t r Q.r r t t t r 0 o . + ; e.U.U.U.P.Z.4.> n w.v.I.L.b.8.b > 0.B.P.U.U.I.0.> O O o 9 r t t t t t 9 r t R R Y t t ",
"t t R ! R t t t t t t t R R t t 0 X       0.K.P.I.I.P.4.@ < 5.r.P.P.t.3.< O q.P.I.L.I.P.3.o     # r t t t t t t t t R Q R t t t ",
"t Y R R t t t t t t t t R ! R t w 6 j % % B <.r.N.r.<.C - 3 M S n.b.F V 3 * H <.h.C.h. .V i 9 % 6 t ..t t t ~ t t Y R R t t t t ",
"t Y Y t t t t t t t t t t R R t t ..Y...t 0   N w.S   8 U 8 # @ 0.5.> X 8 r #   S e.Z   % T R r t ..T...t ~ E.~ t Y Y t t t t t ",
"t t t t t t t t t R.t t t t t t t t ..t r % * b <.n # 8 U 8   . F D @   8 T 9 X M %.n X & r t t t t ..t t t ~ t t t t t t t t t ",
"t t t t t t t t t t t t t t t t t t t t t r u 0 : = 8 r t 8     : @   X I ! T 9 = : = 9 r t t t t t t t t t Y Y t t t t t t t t ",
"t R t t t t t t t t t t t t t t t t t Y Y R R &   % t t t 8           X u R t t %   % t t t t t t t t Y Y R R Y t R t t t t t t ",
"t t t ~ t t t t t t ! t t t t E.t t Y R R R R 9 & I R t t k ^ /  . ./ ^ p t t t 9 & W t t t t E.t t Y R R R R t t t t ~ t t t t ",
"t t t t t R.t t t t t t t t t t t t Y R ! R Y t t R ! R t z ] } a.p.| ' l t t t r t t t t t t t t t Y R ! R Y t t t t t t R.t t ",
"t t t t t t t t t t t t t t t t t t R R R R Y t t t #.R t z ] } a.p.| ' l t t R t t t t t t t t t t R R R R Y t t t t t t t t t ",
"! t t t t t t t t t t t t t t t t Y R R Y Y u t t #.T.#.t z ] } a.p.| ' l t t ~.t t t t t t t t t Y R R Y Y t t ! t t t t t t t ",
"t t t t t t t t t t t t t t t t t Y Y t W.t t t t t #.t t +.' { p.i.{ ` l t t t t t t t t t t t t Y Y t W.t t t t t t t t t t t ",
"t t T.t t t t t t R R u t R.t t t t t W.~.W.t t E.t t t t s h _ o.X.) x a t R.t t R R t t R.t t t t t W.~.W.t t t t T.t t t t t ",
"t t t t t t t t t R ! R t t t t t t t t W.t ! t t t t t t t t s [ ] k t t t t t t R Q R t t t t t t t t W.t Q t t t t t t t t t ",
"t t t t t t t t t t R R Y t t t t t t t t t t t t t t t t t t a ( ( s t t t t t t t R R Y t t t t t t t t t t t t t t t t t t t ",
"t t t t t t t t t t t Y Y t t t t t t t t t t t t t t Y Y t t t a a i t R ! R t t t t T Y t t t t t t t t t t t t t t t t t t t ",
"t t t Y Y Y t t t s.t t t t t t t t t t t t R.t t R.t Y R R t t t u t t R R t t t s.t t t t t t t t t t t t R.t t t t Y Y Y t t ",
"t t t R ! R t t s.T.s.t t t t t t t t t R R t t t t t t R R Y t t t t t t t ~.t s.T.s.t t t t t t t t t R R t t t t t R ! R t t ",
"t R.t R R R t t t s.t t t t t t t E.t Y R R t t t t t t t Y Y t t R.t t t t t t t s.t t t t t t t E.t Y R R t t t R.t R R R t t ",
"t t t Y Y Y ..t t t t ! t t t t t t t Y Y Y t t t t t t t t t t t t t t t t t t t t t ! t t t t t t t Y Y Y t t t t t Y Y Y ..t ",
"t t t t t ..T...t t t t t t t t t t t t t t t t t t t t t t t t t t t t t ! t t t t t t t t t t t t t t t t t t t t t t t ..T...",
"t t t R Y t ..t t t t t t t t t t t t t t t t t t t t t t t t t t t t t t t t t t t t t t t t t t t t t t t t t t t t R Y t ..t ",
"t t t t t t t t t t t t t t t t t t t t t t t t t t t t R R t t t t ~ t t t t t t t t t t t t t t t t t t t t t t t t t t t t t "
};
