/* XPM */
static char *c39736ebb0b6423acd5fbd54c955cc011ZKBhWCqnRHPPaqZ[] = {
/* columns rows colors chars-per-pixel */
"64 64 252 2 ",
"   c None",
".  c #B96C00",
"X  c #B96D00",
"o  c #BA6D00",
"O  c #BA6E00",
"+  c #BA6E01",
"@  c #BB6E01",
"#  c #BB6F01",
"$  c #BB6F02",
"%  c #BB7002",
"&  c #BC7002",
"*  c #BC7102",
"=  c #BC7103",
"-  c #BD7103",
";  c #BD7203",
":  c #BD7204",
">  c #BE7304",
",  c #BF7405",
"<  c #BF7505",
"1  c #BF7506",
"2  c #C07505",
"3  c #C07606",
"4  c #C17707",
"5  c #C17807",
"6  c #C27807",
"7  c #C27808",
"8  c #C27908",
"9  c #C37908",
"0  c #C37909",
"q  c #C37A08",
"w  c #C37A09",
"e  c #C37B09",
"r  c #C37A0A",
"t  c #C47A09",
"y  c #C47B09",
"u  c #C47A0A",
"i  c #C47B0A",
"p  c #C57B0A",
"a  c #C57C0A",
"s  c #C57D0A",
"d  c #C57C0B",
"f  c #C57D0B",
"g  c #C67D0B",
"h  c #C67E0B",
"j  c #C77E0B",
"k  c #C77F0B",
"l  c #C67E0C",
"z  c #C77E0C",
"x  c #C77F0C",
"c  c #C77F0D",
"v  c #C7800C",
"b  c #C7800D",
"n  c #C8800C",
"m  c #C8800D",
"M  c #C8810D",
"N  c #C9810D",
"B  c #C8810E",
"V  c #C9810E",
"C  c #C9820E",
"Z  c #CA820E",
"A  c #CA830E",
"S  c #CA820F",
"D  c #CA830F",
"F  c #CA840F",
"G  c #CB840F",
"H  c #CB850F",
"J  c #CB8410",
"K  c #CB8510",
"L  c #CC8510",
"P  c #CC8610",
"I  c #CD8610",
"U  c #CD8710",
"Y  c #CC8611",
"T  c #CD8611",
"R  c #CD8711",
"E  c #CD8712",
"W  c #CE8811",
"Q  c #CE8812",
"!  c #CE8912",
"~  c #CF8912",
"^  c #CF8913",
"/  c #CF8A13",
"(  c #D08A13",
")  c #D08B13",
"_  c #D08A14",
"`  c #D08B14",
"'  c #D18B14",
"]  c #D18C14",
"[  c #D18C15",
"{  c #D18D15",
"}  c #D28D15",
"|  c #D28E15",
" . c #D28E16",
".. c #D38E16",
"X. c #D38F16",
"o. c #D38F17",
"O. c #D48F16",
"+. c #D39016",
"@. c #D49016",
"#. c #D49017",
"$. c #D59117",
"%. c #D49118",
"&. c #D59118",
"*. c #D59218",
"=. c #D69218",
"-. c #D69318",
";. c #D69319",
":. c #D79419",
">. c #D7941A",
",. c #D8951A",
"<. c #D8961A",
"1. c #D9961A",
"2. c #D8961B",
"3. c #D9961B",
"4. c #D9971B",
"5. c #D9971C",
"6. c #DA971C",
"7. c #DA981B",
"8. c #DA981C",
"9. c #DA991C",
"0. c #DB991C",
"q. c #DB991D",
"w. c #DB9A1D",
"e. c #DC9A1D",
"r. c #DC9B1D",
"t. c #DC9A1E",
"y. c #DC9B1E",
"u. c #DD9B1E",
"i. c #DD9C1E",
"p. c #DD9C1F",
"a. c #DE9D1E",
"s. c #DE9D1F",
"d. c #DE9E1F",
"f. c #DE9D20",
"g. c #DE9E20",
"h. c #DF9E20",
"j. c #DF9F20",
"k. c #E09F20",
"l. c #E0A020",
"z. c #E0A021",
"x. c #E1A021",
"c. c #E1A121",
"v. c #E1A122",
"b. c #E1A222",
"n. c #E2A222",
"m. c #E2A322",
"M. c #E2A323",
"N. c #E3A323",
"B. c #E3A423",
"V. c #E4A523",
"C. c #E3A424",
"Z. c #E3A524",
"A. c #E4A524",
"S. c #E5A624",
"D. c #E4A625",
"F. c #E5A625",
"G. c #E5A725",
"H. c #E6A725",
"J. c #E5A726",
"K. c #E6A726",
"L. c #E6A825",
"P. c #E6A826",
"I. c #E7A826",
"U. c #E7A926",
"Y. c #E7A927",
"T. c #E7AA27",
"R. c #E8AA27",
"E. c #E8AB27",
"W. c #E9AB27",
"Q. c #E9AB28",
"!. c #E9AC28",
"~. c #E9AC29",
"^. c #EAAC28",
"/. c #EAAD28",
"(. c #EAAC29",
"). c #EAAD29",
"_. c #EAAE29",
"`. c #EBAE29",
"'. c #EBAE2A",
"]. c #EBAF2A",
"[. c #ECAF2A",
"{. c #ECB02A",
"}. c #ECB02B",
"|. c #EDB02B",
" X c #EDB12B",
".X c #EDB12C",
"XX c #EDB22C",
"oX c #EEB22C",
"OX c #EEB32C",
"+X c #EFB32C",
"@X c #EFB32D",
"#X c #EFB42D",
"$X c #F0B42D",
"%X c #F0B52D",
"&X c #F0B52E",
"*X c #F1B52E",
"=X c #F0B62E",
"-X c #F1B62E",
";X c #F1B62F",
":X c #F1B72F",
">X c #F2B72F",
",X c #F2B82F",
"<X c #F2B730",
"1X c #F2B830",
"2X c #F3B830",
"3X c #F3B930",
"4X c #F3B931",
"5X c #F3BA31",
"6X c #F4BA30",
"7X c #F4BA31",
"8X c #F4BB31",
"9X c #F5BB31",
"0X c #F4BA32",
"qX c #F4BB32",
"wX c #F5BB32",
"eX c #F5BC32",
"rX c #F5BC33",
"tX c #F6BC32",
"yX c #F6BD32",
"uX c #F6BC33",
"iX c #F6BD33",
"pX c #F7BD33",
"aX c #F7BE33",
"sX c #F7BF33",
"dX c #F6BD34",
"fX c #F6BD35",
"gX c #F6BE34",
"hX c #F7BE34",
"jX c #F7BE35",
"kX c #F7BF35",
"lX c #F7BF36",
"zX c #F8BF33",
"xX c #F8BF34",
"cX c #F8BF36",
"vX c #F7C036",
"bX c #F7C037",
"nX c #F8C034",
"mX c #F8C036",
"MX c #F8C037",
"NX c #F7C038",
"BX c #F7C039",
"VX c #F7C139",
"CX c #F7C03A",
"ZX c #F7C13A",
"AX c #F7C13B",
"SX c #F8C038",
"DX c #F8C138",
"FX c #F8C039",
"GX c #F8C139",
"HX c #F8C13A",
"JX c #F8C13B",
"KX c #F8C13C",
/* pixels */
"                                                                                                                                ",
"                                                                                                                                ",
"                                                    DXDXMXbXcXgXgXgXcXDXDXDX                                                    ",
"                                            DXDXgX<XQ.l.,.$.] ~ ' | $.8.A.[.&XcXDXDX                                            ",
"                                        lXiX/.r.R f f n ~ | >.,.,.$.| R f d f ' l..XgXMX                                        ",
"                                    MX7Xl.K f G 6.A.&X7XiXzXcXzXMXzXiXiX7X.XC.;.B t | I.7XDX                                    ",
"                                DX7Xk.c f ,./.7XcXzXzXiXiXzXiXzXzXzXiXzXiXzXcXiX,XI.| r R A.gXlX                                ",
"                            ZXgXA.G f r.&XMXzXzXcXiXiXzXzXiXzXiXzXiXzXiXzXzXiXzXzXcXgX.X;.t / .XgX                              ",
"                          cX1X;.q -.&XzXzXiXzXiXzXiXzXiXzXiXzXiXiXzXiXzXiXzXiXzXiXzXiXzXiX[.~ t h.gXAX                          ",
"                        DX.XJ B L.iXzXzXiXzXiXzXiXzXiXzXiXzXiXzXzXiXzXiXzXiXzXiXzXiXiXzXzXzX7Xk.t | <XlX                        ",
"                      gXI.f ' &XnXzXzXiXzXiXzXiXzXiXzXiXzXiXzXiXiXzXiXzXiXzXiXzXzXiXzXiXzXiXzXcX/.J R $XDX                      ",
"                    gXI.r >.7XzXiXzXiXzXiXzXiXzXiXzXiXzXiXzXiXzXzXiXzXiXzXiXzXiXiXzXiXzXiXzXiXiXcX.XR B  XZX                    ",
"                  bXI.t 8.iXiXzXzXiXzXiXzXiXzXiXzXiXzXiXzXiXzXiXiXzXiXzXiXzXiXzXzXiXzXiXzXiXiXzXcXzX,X~ B $XcX                  ",
"                ZX[.f ,.iXiXzXiXiXzXiXzXiXzXiXzXiXzXiXzXiXzXiXzXzXiXzXiXzXiXzXiXiXzXiXzXiXzXzXiXiXzXMX&XR R 1XDX                ",
"              ZX&XG | 7XiXzXiXzXzXiXzXiXzXiXzXiXzXiXzXiXzXiXzXiXiXzXiXzXiXzXiXzXzXiXzXiXzXiXzXzXzXiXzXzX.XB ;.gX                ",
"              gX$.B &XzXzXiXzXiXiXzXiXzXiXzXiXzXiXzXiXzXiXzXiXzXzXiXzXiXzXiXzXiXiXzXiXzXzXzXzXiXiXzXiXzXcXQ.t l.DX              ",
"            MXA.t Q.gXzXiXzXiXzXiXzXiXzXiXzXiXzXzXiXzXiXzXiXzXiXzXiXzXiXzXiXzXnXzXzXiX,X X/.Z. XzXzXiXzXzXiXa.f .XZX            ",
"          ZX,XB ,.iXzXiXzXiXzXiXzXiXzXiXzXiXzXiXiXzXiXzXiXzXiXzXiXzXiXzXiXzXzX,X&Xl.H f 1 & o a.zXiXzXiXiXzX7XR +.iX            ",
"          MXr.f &XzXzXiXiXzXiXzXiXzXiXzXiXzXiXzXzXiXzXiXzXiXzXiXzXiXzXiXnX.X8.f B a.r o % o & Z.zXzXiXzXzXiXzXW.r W.bX          ",
"        DX&Xf k.zXzXiXzXzXiXzXiXzXiXzXiXzXiXzXiXiXzXiXzXiXzXiXzXiXzXMX,Xr.t o o # B a.r o & & /.cXiXzXiXiXzXiXiX| ( iX          ",
"        DXh.B ,XzXiXzXiXzXiXzXiXiXzXiXzXiXzXiXzXzXiXzXiXzXiXiXnXzXzX/.B % o % % # o G h.r . r #XiXzXiXzXiXzXiXzX/.t /.DX        ",
"        7XB 0.zXiXzXiXzXiXzXiXzXzXiXzXiXzXiXzXiXiXzXiXzXiXnXiXiXiXh.6 o o & % o # # # B f.4 B iXzXiXzXiXzXiXzXiXiXR ;.MX        ",
"      DXW.t  XzXzXiXzXiXzXiXzXiXiXzXiXzXiXzXiXzXzXiXzXiXzXiXiXiX7.1 o & ( a.a.~ & % & o K a.r.zXiXzXiXzXiXzXiXzXcXl.f 1X        ",
"      cX>.R iXzXiXzXiXzXiXzXiXzXzXiXzXiXzXiXzXiXiXzXiXzXiXzXiX,.% o % a.iXMXiX7X;.& o & o R <XiXzXiXzXiXzXiXzXiXnX&Xf A.DX      ",
"      7XB a.MXzXzXiXzXiXzXiXzXiXiXzXiXzXzXiXzXiXzXiXzXiXnXiX7.& o o B ,XnXzXiXnX&Xf o % o v ,XzXiXzXiXzXiXzXiXzXzXzX] $.MX      ",
"    KX.Xt /.zXzXiXzXiXzXiXzXiXzXzXiXzXiXiXzXzXcXzXzXcXzXiXj.& & % % +.iXzXiXiXzXiXU o % o r.zXzXzXiXzXiXzXiXzXiXiXzXh.B 7X      ",
"    DXA.j ,XiXzXzXiXzXiXzXiXzXiXiXzXiXzXzXiX Xj.8.l./.7XI.1 # o o o ~ iXiXzXzXiX7XB o o f &XnXiXiXzXiXzXiXzXiXzXzXcXW.t &X      ",
"    DX8.H iXzXiXiXzXiXzXiXzXiXzXzXiXzXiX7Xr.6 % o o 4 n 6 o & % % % 1 /.nXzXzXzXZ.& % % l.MXzXzXzXiXzXiXzXiXzXiXiXzX&Xf W.DX    ",
"    gX$.| MXiXzXzXiXzXiXzXiXzXiXiXzXzXiX;.& o & & % o o & % o & # # # f l.&X&Xh.r o o | 7XzXiXzXiXzXiXzXiXzXiXzXiXzX7XB l.DX    ",
"    gX~ ,.zXzXiXiXzXiXzXiXzXiXzXzXiXiXa.& # o % & o % & & o % & # # # o & q 6 # o o f #XnXiXzXiXzXiXzXiXzXiXzXiXzXzXiXH r.DX    ",
"    iXH a.zXiXzXzXiXzXiXzXiXzXiXiXMX/.4 o o & & % % o o % % o o # # # # # # # # o 6 W.zXzXiXiXzXiXzXiXzXiXzXiXzXiXzXzX( ,.MX    ",
"    iXB j.MXzXiXiXzXiXzXiXzXiXzXzX7X~ o & % % o o & & % o & & % # # # # # # # o 4 V.iXzXiXzXzXiXzXiXzXiXzXiXzXiXzXiXiX| -.MX    ",
"    7XG k.zXzXiXzXiXzXiXzXiXzXiXzXZ.& o % o o o & o o % o % % & # # # # # # o 4 V.iXzXiXzXiXzXiXzXiXzXiXzXiXzXiXzXiXzX] -.MX    ",
"    iXG a.zXiXzXiXzXiXzXiXzXiXzX,XG % % o o > > % % & & & & o o # # # # # o t W.zXiXiXzXiXzXiXzXiXzXiXzXiXzXiXzXiXzXiX( ,.MX    ",
"    iX~ ,.MXzXiXzXiXzXiXzXiXiXzXl.& % 1 B >.D.R o % % o % o & % # # # # & H  XgXiXzXiXzXzXiXzXiXzXiXzXiXzXiXzXiXzXiXiX~ r.MX    ",
"    iX+.$.iXiXzXiXzXiXzXiXzXzXiX,.~ a. X,XMXgXR o o & o % & o % # # # # ] &XcXzXzXiXzXiXiXzXiXzXiXzXiXzXiXzXiXzXiXzX7XB l.DX    ",
"    MX8.H zXzXiXzXiXzXiXzXiXzXiX7XiXzXMX.Xr.h.Y.B o & % % o & & % & & o 7.zXzXiXiXzXiXzXiXzXiXzXzXiXzXiXzXiXzXiXzXiX&Xf Q.DX    ",
"    DXV.n &XiXzXiXzXiXzXiXzXiXzXiXzXiXl.t ' / / A.f o % & o % o o o & o R iXiXzXzXiXzXiXzXiXzXiXiXzXiXzXiXzXiXzXiXcXW.f $X      ",
"    DX.Xf [.zXiXzXiXzXiXzXiXzXiXiXiXa.> / A.D.8.| A.f o & % & o & % # o f &XzXiXiXzXiXzXiXzXiXzXzXiXzXiXzXiXzXiXzXnXa.B 7X      ",
"      7XB a.cXzXiXzXiXzXiXzXiXzXzXW.1 r A.f > a.>.( Z.f o & % & & o # # q &XiXzXzXiXzXiXzXiXzXiXiXzXiXzXiXzXiXzXzXiX| $.bX      ",
"      bX;.~ iXiXzXiXzXiXzXiXzXiX7X~ o ,.a.o % 1 h.;.;./.r.R o & % % o o B ,XzXzXiXzXiXzXiXzXiXzXzXiXzXiXzXiXzXiXiX&Xj A.DX      ",
"      DXI.f .XzXiXzXiXzXiXzXiXcX/.& % I.8.o o o B /.f &X7Xc o # o & % & 8.nXzXiXzXiXzXiXzXiXzXiXiXzXiXzXiXzXiXzXnXV.f &X        ",
"        7XB a.iXzXiXzXiXzXiXzXzXa.o & I.#XK 6 ~ Z.| H iXW.> # # % % o ~ &XzXzXiXiXzXiXzXiXzXiXzXzXiXzXiXzXiXzXiXiX( $.gX        ",
"        cXr.B 7XiXzXiXzXiXzXiXzX| o % ( &X1X}.l.G 1 I.MX,.# # # o o ~ #XzXzXiXzXzXiXzXiXzXiXzXiXiXzXiXzXiXzXiXzX`.q W.ZX        ",
"        ZX&Xf l.nXzXzXiXzXiXzXiX~ o o % f ~ f > > h.cX7XG o % o 4 ,.,XnXzXiXzXiXiXzXiXzXiXzXiXzXzXiXzXiXzXiXzXzX| ~ iX          ",
"          gX8.B &XzXiXzXiXzXiXzX+.o & % o o o f l.zXzX/.1 o > ~ /.iXzXiXiXzXiXzXzXiXzXiXzXiXzXiXiXzXiXzXiXzXcXW.r W.cX          ",
"          DX&Xc 7.iXzXiXzXiXiXMXA.f 4 1 6 G a.#XnXiXMX8.> ~ W.7XMXzXiXzXzXiXzXiXiXzXiXzXiXzXiXzXzXiXzXiXzXiX7XQ | gX            ",
"            DXl.r /.zXzXiXzXzXiXiX,X X X,XiXMXiXzXiXzXW./.iXzXiXzXiXzXiXiXzXiXzXzXiXzXiXzXiXzXiXiXzXiXzXgXcXk.r .XlX            ",
"              gXo.J <XgXzXiXzXiXiXzXzXzXiXzXiXzXiXzXiXnXzXzXiXzXzXiXzXiXzXiXzXiXiXzXiXzXiXzXiXzXzXiXzXiXMX[.f l.cX              ",
"              DX&XB o.rXiXzXiXzXzXiXiXzXzXiXzXiXzXiXiXzXiXzXzXiXiXzXiXzXiXzXiXzXzXiXzXiXzXiXzXiXiXzXzXzX&XB | 7X                ",
"                cX/.d 6.iXzXzXiXiXzXiXzXiXzXiXzXzXiXzXiXzXiXzXiXzXiXzXiXzXiXzXiXiXzXiXzXiXzXiXzXzXiXzX1X( B &XZX                ",
"                  cXA.r r.iXiXzXzXiXzXiXzXiXzXiXiXzXiXzXiXzXiXzXiXzXiXzXiXzXiXzXzXiXzXiXzXiXzXiXiXzX7X' B .XDX                  ",
"                    gXZ.r 6.iXiXiXzXiXzXiXzXiXzXzXiXzXiXzXiXzXiXzXiXzXiXzXiXzXiXiXzXiXzXzXiXzXzXcX&X~ f  XDX                    ",
"                      cXA.t | ,XcXzXzXiXzXiXzXiXiXzXiXzXiXzXiXzXiXzXiXzXiXzXiXzXzXiXzXiXiXzXiXzX XG J .XbX                      ",
"                        MX/.B B /.iXzXiXiXzXiXzXzXiXzXiXzXiXzXiXzXiXzXiXzXiXzXiXzXiXiXzXiXcXgXl.t | &XDX                        ",
"                          MX&X;.t ,.&XcXzXiXzXzXiXzXiXzXiXzXiXzXiXzXiXzXiXzXiXzXiXzXiXzXcX[.| t a.1XDX                          ",
"                            DXgXA.c c h.&XMXzXzXiXzXzXzXiXzXzXcXzXiXzXiXzXzXiXzXiXcXzX$X,.t ~ /.cX                              ",
"                                DX<Xr.f j 0.[.tXzXzXzXcXzXiXzX7XiXzXiXzXiXzXcXzX7XQ.$.t B Z.7XDX                                ",
"                                  DXMX&Xh.B f R r.W.&X7XiXzXcXzXzXcXzXiX7X&XA.,.J r ~ A.7XMX                                    ",
"                                      KXcX7X/.,.J t f H ' $.6.r.r.,.$.( B t f ~ r.[.gXDX                                        ",
"                                            DXMX7X$XA.k.;.| R R R ~ | ,.l./.&XgXMXDX                                            ",
"                                                  KXDXDXMXgXgXgXgXiXcXMXMXDX                                                    ",
"                                                                                                                                ",
"                                                                                                                                "
};
