/* XPM */
static char *_189230041d248298b9a0473c0fb9aefugsluRoUKZydVn1J[] = {
/* columns rows colors chars-per-pixel */
"63 63 135 2 ",
"   c #180E35",
".  c #1C1135",
"X  c #221636",
"o  c #251936",
"O  c #2A1D36",
"+  c #2E2036",
"@  c #322337",
"#  c #3C2B36",
"$  c #412F36",
"%  c #412F38",
"&  c #453236",
"*  c #493637",
"=  c #4E3936",
"-  c #523D36",
";  c #574036",
":  c #5B4436",
">  c #644C36",
",  c #6F5435",
"<  c #705537",
"1  c #755936",
"2  c #795C35",
"3  c #7F6035",
"4  c #1F124B",
"5  c #22154B",
"6  c #2A1B4A",
"7  c #25145D",
"8  c #28165D",
"9  c #2F1C5C",
"0  c #301D5B",
"q  c #36254B",
"w  c #3D2B4A",
"e  c #36225B",
"r  c #3D285A",
"t  c #2E207C",
"y  c #31237B",
"u  c #422F49",
"i  c #49344A",
"p  c #503A47",
"a  c #4B3358",
"s  c #573D55",
"d  c #402E76",
"f  c #433472",
"g  c #4B3773",
"h  c #5D4254",
"j  c #775A43",
"k  c #664A51",
"l  c #6E5050",
"z  c #654E69",
"x  c #6E5778",
"c  c #BC6F00",
"v  c #BC7100",
"b  c #BF492B",
"n  c #836335",
"m  c #8C6B35",
"M  c #957235",
"N  c #9B7735",
"B  c #9C7836",
"V  c #A47E34",
"C  c #A27B3E",
"Z  c #C17602",
"A  c #C57C05",
"S  c #C87F05",
"D  c #F7771C",
"F  c #86634B",
"G  c #987246",
"H  c #8D6E5A",
"J  c #A57F52",
"K  c #9C7960",
"L  c #D87741",
"P  c #A78135",
"I  c #AC8433",
"U  c #B18732",
"Y  c #B58B33",
"T  c #B98E33",
"R  c #BE9132",
"E  c #C98206",
"W  c #CB840A",
"Q  c #CF890B",
"!  c #D28D0D",
"~  c #D4900F",
"^  c #D38E11",
"/  c #D69211",
"(  c #D89613",
")  c #DB9A16",
"_  c #DD9D19",
"`  c #E09F1A",
"'  c #DFA11C",
"]  c #E2A31C",
"[  c #E6A81F",
"{  c #CB9A2D",
"}  c #D69F27",
"|  c #D09E2E",
" . c #C49632",
".. c #C69934",
"X. c #CA9B33",
"o. c #C2933A",
"O. c #DDA324",
"+. c #D5A12B",
"@. c #DBA52B",
"#. c #DEA92D",
"$. c #D4A332",
"%. c #DBA931",
"&. c #D7A638",
"*. c #E3A621",
"=. c #E6A922",
"-. c #EAAD24",
";. c #E3AB2B",
":. c #E9AF28",
">. c #EDB227",
",. c #E6B12F",
"<. c #EDB42A",
"1. c #F1B62A",
"2. c #F5BC2E",
"3. c #E3AE31",
"4. c #FEAF31",
"5. c #E6B230",
"6. c #E8B231",
"7. c #FDB332",
"8. c #F7BF30",
"9. c #F8BF31",
"0. c #F7C030",
"q. c #F8C030",
"w. c #F8C031",
"e. c #B38942",
"r. c #C2974C",
"t. c #AED07A",
"y. c #FEE760",
"u. c #FEE861",
"i. c #4F3E84",
"p. c #503F84",
"a. c #8C74DB",
"s. c #6FDBB4",
"d. c #1B9FCB",
"f. c #009ADC",
"g. c #28E9F5",
/* pixels */
"        4 4                                           4 4               4 4                                             4 4   ",
"      7 7 4                       7                 7 7 4   f         7 7 4                       7                   7 7 4   ",
"    7 t 7       a.            f             i.    t t 7   f a.f     7 t 7       a.            f             i.      7 t 7     ",
"  4 7 7             L     i.                    7 t t       f     4 7 7             L     i.                      4 7 7       ",
"  4 4             L u.L                       g.7 7 . . o @ # & % w q o       .   L u.L                       g.  4 4         ",
"                    L 7             t       . 9 u > M Y X.%.5.5.6.;.%.X.I m : @ . . L 7             t         7               ",
"                  7 t 7               . o & 1 U @.:.[ ] ) ~ ~ ! ! ! / ) ] -.:.X.V l g 9                                       ",
"  7               7 7           u.. O = m { *.] / Q Q ! ) ) ' ' ] ` ) / ! ! ! ( ] ;.o.3 & o .   u.                7           ",
"      f                         X * m { *.( ! / _ =.<.2.2.0.8.9.9.8.8.2.2.>.[ ) ^ ! _ *.T 2 # .         7 7           f       ",
"          i.                  O , T O./ ! ) =.1.8.0.8.8.0.0.8.8.8.8.8.8.w.2.w.2.<.[ / ! ) O.I : X       7 t 7             i.  ",
"                      4 4   # M } _ ! ) =.2.8.8.0.8.8.8.8.8.8.8.8.8.8.8.w.w.w.8.0.2.1.=./ ! _ X.2 O       7 7                 ",
"t                   7 7 4 $ r.@.^ ! [ 2.8.9.8.8.8.8.8.8.8.8.8.8.8.8.8.8.w.2.0.8.w.w.w.2.1.] ! ( @.M d.          t             ",
"                  4 7 7 * ..*.Q / >.2.0.8.8.8.8.8.8.8.8.8.8.8.8.8.8.8.8.8.8.8.8.w.w.0.8.8.2.-.! ! 5.t.d.    f                 ",
"    u.            4 4 & ..*.A ) 2.8.8.0.8.8.8.8.8.8.8.8.8.8.8.8.8.8.8.8.8.8.8.8.2.w.8.8.8.8.w.1.! Q ,.P + f a.f     y.        ",
"                    # U *.E _ 8.8.8.8.8.8.8.8.8.8.8.8.8.8.8.8.8.8.8.8.8.8.8.8.8.8.8.8.8.8.8.8.w.2.! W :.M o f                 ",
"                  O M *.W _ 2.8.8.8.8.8.8.8.8.8.8.8.8.8.8.8.8.8.8.8.9.8.8.8.8.8.8.8.8.8.8.8.8.8.0.2.~ ! @.2 o                 ",
"                6 j +.~ ( 2.8.8.8.8.8.8.8.8.8.8.8.8.8.8.8.8.8.8.8.8.8.8.8.8.0.0.8.w.0.8.8.8.8.8.w.w.1.! / { ; .               ",
"a.    D       8 s R ) ~ >.8.8.8.8.8.8.8.8.8.8.8.8.8.8.8.8.8.8.8.8.8.8.8.8.8.w.2.8.2.2.2.<.1.2.w.w.2.w.-.! _ V # .     4 4 4   ",
"    D u.D   y d G O.! =.2.w.8.8.8.8.8.8.8.8.8.8.8.8.8.8.8.8.8.8.8.8.8.8.8.w.2.2.>.] ) / ^ _ 1.0.0.2.w.2.' ~ +.1 . .   7 t 7   ",
"7     D   7 y z { / _ 1.0.w.8.8.8.8.8.8.8.8.8.8.8.8.8.8.8.8.8.8.8.8.8.9.2.-.) ) _ E v v v Q 1.0.w.w.2.0.<./ ) Y # p.  7 7 7   ",
"7 7     4 7 e M ] ~ -.0.8.8.8.8.8.8.8.8.8.8.8.8.8.8.8.8.8.8.8.8.8.8.8.>.( W Z v ! / Z c v / 1.w.w.w.w.0.2.[ ! O.2 X   4 4 4 b ",
"7 7     4 5 & | / ) 2.8.8.8.8.8.8.8.8.8.8.8.8.8.8.8.8.8.8.8.8.8.8.2.*.W v v v v c Q / Z v ( 2.w.2.w.w.2.0.1./ _ U @       b u.",
"7 7       . n =.! =.8.8.8.8.8.8.8.8.8.8.8.8.8.8.8.8.8.8.8.8.8.8.8._ A v v v v v c v ! ! A ] 2.w.8.8.w.0.2.0.] ~ @.: . 7 4   b ",
"          o T _ / 2.8.8.8.8.8.8.8.8.8.8.8.8.8.8.8.8.8.8.8.8.8.2./ v c A ( ] ~ Z v v v ! _ -.w.2.8.8.8.8.0.0.>.! [ M .         ",
"g.        & ;.^ ] 2.2.w.8.8.8.0.8.8.8.8.8.8.0.w.8.8.8.8.8.8.1./ v c W -.9.w.2.] v v v Z ) 2.8.8.8.8.8.8.8.8.2.( )  .O         ",
"      p.  1 -.! -.w.w.w.8.8.8.8.8.8.8.8.8.8.8.2.8.8.8.8.8.1.) v v v / 2.8.8.2.2.W c v v _ 2.8.8.8.8.8.8.8.8.2.] ~ #.= f       ",
"          V *.! 1.w.8.8.8.8.8.8.8.8.8.8.8.8.9.2.>.>.1.8.1._ Z c v Z ) 2.8.8.8.2.Q c v W >.8.8.8.8.8.8.8.8.0.w.-.Q >.H a.f     ",
"  7 7   o ..) / 2.8.8.8.8.8.8.8.8.8.8.w.w.2.-.( Q W ^ ) ) A c c v v ~ 2.0.8.8.>.A v Z _ 2.8.8.8.8.8.8.8.8.w.w.1.Q [ N f       ",
"  7 7 7 r %./ ) 8.8.8.8.8.8.8.8.8.8.8.8.8.=.W v v v v v v c v v v v A _ >.2.>./ v v Q 1.8.8.8.8.8.8.8.8.8.8.8.2.~ ] Y .     i.",
"    7 y a 5.! ] 8.8.8.8.8.8.8.8.8.8.8.8.-.W v c v v v v c c c v c v c Z Q W W v c A -.0.8.8.8.8.8.8.8.8.8.8.w.2./ ) X.o       ",
"    7 7 s 6.Q [ 9.8.8.8.8.8.8.8.8.8.8.1.^ v v c v c c v c v v v c v c v c c v c Z [ 2.w.8.8.8.8.8.8.8.8.8.8.8.8.) / @.O       ",
"    7 7 h >.Q [ 9.8.8.8.8.8.8.8.8.w.8._ v v v v v v v v v v c v v v v v c v v v ] 2.8.8.8.8.8.8.8.8.8.8.8.8.8.8.) ~ %.+   7 7 ",
"  i.    - <.Q =.0.8.8.8.8.8.8.8.8.8.:.W v v v v v v v v v c v v v v v v v v Z ` 2.w.8.8.8.8.8.8.8.8.8.8.8.8.8.8.) / %.@ 7 t 7 ",
"        = <.Q [ 8.8.8.8.8.8.8.8.8.2.) Z v v v A v v v v v v v c v c v c v A [ 2.8.8.8.8.8.8.8.8.8.8.8.8.8.8.0.w.) ( $.O 7 7   ",
"    4   z ,.! ] 8.8.8.8.8.8.0.8.8.>.! A W ^ ` -.W c v v v c v v v v v v W *.8.8.8.8.8.8.8.8.8.8.8.8.8.8.8.8.8.2.( ) X.o     g.",
"  4 t 4 @ %.~ ) 8.8.8.8.8.8.8.8.8.1.` [ >.2.>.-.^ v v v v c v c v v v A [ 8.8.8.8.8.8.8.8.8.8.8.8.8.8.8.8.8.8.2.! ] T .       ",
"    4   o ..) / 2.8.8.8.8.8.8.8.8.2.8.9.1.` / / ) ! v v v v v v v v v A =.0.8.8.8.8.8.8.8.8.8.8.8.8.8.8.8.8.w.1.! [ N         ",
"        . V *.! 2.8.8.8.8.8.8.8.8.8.9.-.! E ` _ / ( ! v v v v v c v v Z _ 2.8.8.8.8.8.8.8.8.8.8.8.8.8.8.8.0.w.-.! -.1     t   ",
"          2 -.Q -.8.8.8.8.8.8.8.8.8.1.( A ) Q W _ / ( Q v c c v v v c v ) 2.0.0.8.8.8.8.w.w.8.8.8.8.8.8.8.8.8.] ! ;.= .       ",
"          * #./ _ 8.8.8.8.8.8.8.9.9.[ Z Q _ Z c W ) / _ _ Q v v v c c v _ 2.0.0.8.8.8.8.0.2.9.8.8.8.8.8.8.8.2.( ) ..g .       ",
"        5 6  .) / 2.8.8.8.8.8.8.8.2./ v _ _ c c v ^ ) _ 1.~ v v v v c W -.8.8.8.8.8.8.8.8.8.8.8.8.8.8.8.8.8.>.^ [ M .   4 4   ",
"      7 8 5 n [ ! -.8.8.8.8.8.8.8.>.W c ) :.! S ! _ ! ] >.W v v v v Z _ 2.8.8.8.0.8.8.8.8.8.8.8.8.8.8.8.8.8.] ^ #.: . 7 7 4   ",
"    7 t 8   = | / ) 2.8.8.8.8.8.0.-.A c S =.>.*.) E ^ 1.[ A v v c A ) 2.8.8.8.8.8.8.8.8.8.8.8.8.8.8.8.8.8.1./ _ Y @ 7 t 7     ",
"  4 7 8     O N ' / -.8.8.0.8.8.w.-.A v c Z S A Z ! >.2.( v v Z W [ 2.8.8.8.8.8.8.8.8.8.8.8.8.8.8.8.8.8.2.*.! *.2 6 7 7       ",
"  4 4       . : | / ) 2.8.8.8.8.8.-.W v v v Z W ( >.w.1.Q Z W ) 1.8.8.8.8.8.8.8.8.8.8.8.8.8.8.8.8.8.8.9.1.( ) o.# 5 4         ",
"              O M O.! =.8.8.8.8.8.2.=.( ( ( ] -.2.9.8.>.) ] <.8.0.8.8.8.8.8.8.8.8.8.8.8.8.8.8.8.8.8.8.2.' ! @.2 X .           ",
"              . -  .) ~ <.8.8.8.8.8.8.2.2.2.2.w.8.8.8.2.1.2.8.8.8.8.8.8.8.8.8.8.8.8.8.8.8.8.8.8.8.8.8.>.! _ I u               ",
"  7             X 2 +.! ( 2.8.8.8.8.8.8.8.0.8.8.8.8.8.8.8.8.8.8.8.8.8.8.8.8.8.8.8.8.8.8.8.8.8.8.8.w.<.! ( X.k 5   7           ",
"      f         . + e.@.W _ 8.8.8.8.8.8.8.8.8.8.8.8.8.8.8.8.8.8.8.8.8.8.8.8.8.8.8.8.8.8.8.8.8.8.w.2./ Q %.F 9         f       ",
"          i.        # Y *.A ' 8.8.8.0.0.8.8.8.8.8.8.8.8.8.8.8.8.8.8.8.8.8.8.8.8.8.8.8.8.8.8.w.w.2.~ E :.J e 4             i.  ",
"                      * X.*.E _ 2.w.0.0.8.8.8.8.8.8.8.8.8.8.8.8.8.8.8.8.8.8.8.8.8.8.8.8.8.9.8.1.~ E >.e.r 7 4                 ",
"t                       = ..*.W / <.2.w.8.8.8.8.8.8.8.8.8.8.8.8.8.8.8.8.8.8.8.8.8.8.8.9.8.2.>.! ! -.e.r 4 4     t             ",
"                          * T O.! / =.1.8.9.8.8.9.9.2.0.8.8.8.8.8.8.8.8.8.8.8.8.8.8.8.9.1.] ! / ;.G w   f.                    ",
"    y.            7 7     p.# N +.) ! ) -.2.8.8.9.2.w.w.8.8.8.8.8.8.8.8.8.8.8.8.9.9.1.=.( ! _ { n O   f.g.f.        y.        ",
"                  7 t 7       + 2 R O./ ! ) -.2.8.9.8.8.8.8.8.8.8.8.8.8.8.8.8.8.1.[ ( ^ ( O.U > o .     f.  t                 ",
"                    7 7 4       o = M { ] / ! ^ _ -.1.2.8.8.9.8.9.9.8.2.2.1.=.) ^ ! ) O...n $ X   .                           ",
"                      4 4           O ; M | =.` ~ Q ! ~ ) _ ] ] ] ] ) ( ^ ! ! / ] ;. .m p o                                   ",
"      4 4 4       4.                  . O & K T ;.-.*._ / / ! ! ! ! ! ) ' =.:.$.I 7.# o                     i.        4 4 4   ",
"      7 t 7     4.y.4.                  7 8   o & < B  .&.3.6.6.<.,.3.$.T M s.# 7.u.4.                  7 7           7 t 7   ",
"  i.  7 7 7       4.              a.  5 7 7         . . O u i * * x @ O .         4.              a.  4 8 8       i.  7 7 7   ",
"      4 4 4 b         t               5 4 4                                           t               4 4 4           4 4 4 b ",
"          b y.b                                                           t                                               b y.",
"      7 4   b                                                                                                         7 4   b "
};
