/* XPM */
static char *_7b4678653c248ee9075a3e79103922cGFRomacbUmQI2dRn[] = {
/* columns rows colors chars-per-pixel */
"64 64 232 2 ",
"   c #180E35",
".  c #1A1235",
"X  c #1A1735",
"o  c #1B153A",
"O  c #1C1B3A",
"+  c #211B3A",
"@  c #1D243C",
"#  c #24293C",
"$  c #26333F",
"%  c #29343F",
"&  c #724E36",
"*  c #1B1D42",
"=  c #1F124B",
"-  c #20154B",
";  c #25145D",
":  c #271A5A",
">  c #1E2646",
",  c #272845",
"<  c #263341",
"1  c #293542",
"2  c #2A3A44",
"3  c #243649",
"4  c #2B364A",
"5  c #2C394B",
"6  c #31394C",
"7  c #292958",
"8  c #2E3B53",
"9  c #2E3858",
"0  c #323D53",
"q  c #363859",
"w  c #333E59",
"e  c #2C316C",
"r  c #3A3D63",
"t  c #2E2B73",
"y  c #2E207C",
"u  c #42336F",
"i  c #433472",
"p  c #2A4146",
"a  c #27424A",
"s  c #2A4549",
"d  c #2C4B4C",
"f  c #3D4247",
"g  c #2D534E",
"h  c #315A4E",
"j  c #2D4754",
"k  c #364559",
"l  c #35415C",
"z  c #2E5652",
"x  c #2F5952",
"c  c #2E5A5A",
"v  c #325B53",
"b  c #3B5C54",
"n  c #345658",
"m  c #325C5B",
"M  c #37664E",
"N  c #39744A",
"B  c #3C754D",
"V  c #3B7C4E",
"C  c #336351",
"Z  c #386954",
"A  c #397451",
"S  c #1D4E67",
"D  c #354263",
"F  c #3B4364",
"G  c #3B456A",
"H  c #394969",
"J  c #395866",
"K  c #37596E",
"L  c #3C4771",
"P  c #3F4972",
"I  c #386466",
"U  c #3A736F",
"Y  c #3B6474",
"T  c #445351",
"R  c #43784C",
"E  c #4A6F58",
"W  c #42496A",
"Q  c #44576A",
"!  c #414A73",
"~  c #484F78",
"^  c #485578",
"/  c #54597A",
"(  c #615964",
")  c #486769",
"_  c #556B65",
"`  c #467365",
"'  c #57736B",
"]  c #466577",
"[  c #56667A",
"{  c #4A7477",
"}  c #587574",
"|  c #667878",
" . c #BF492B",
".. c #F7771C",
"X. c #D87741",
"o. c #5DA73E",
"O. c #60A73F",
"+. c #63AB3E",
"@. c #3F814E",
"#. c #3C8870",
"$. c #43834C",
"%. c #4B8948",
"&. c #4E8E4E",
"*. c #559A44",
"=. c #599C44",
"-. c #549548",
";. c #689858",
":. c #5DA342",
">. c #5EA84B",
",. c #5EA853",
"<. c #62AA41",
"1. c #65A846",
"2. c #67AB57",
"3. c #72AF55",
"4. c #7CB55B",
"5. c #508D6E",
"6. c #6D946D",
"7. c #68817C",
"8. c #748679",
"9. c #5AA768",
"0. c #59A775",
"q. c #72AE6C",
"w. c #FEAF31",
"e. c #84B65A",
"r. c #838F79",
"t. c #91BB6F",
"y. c #C2AF4E",
"u. c #F1DF63",
"i. c #FEE861",
"p. c #4F3E84",
"a. c #3B798A",
"s. c #3B7A92",
"d. c #485C83",
"f. c #525B82",
"g. c #496986",
"h. c #596789",
"j. c #467B8B",
"k. c #597884",
"l. c #5C6D91",
"z. c #487B94",
"x. c #5B7A94",
"c. c #61698B",
"v. c #6B798A",
"b. c #646C94",
"n. c #676F99",
"m. c #657499",
"M. c #5F73A5",
"N. c #8C74DB",
"B. c #3693A3",
"V. c #43838A",
"C. c #59848A",
"Z. c #468798",
"A. c #4B9093",
"S. c #6B8782",
"D. c #788D86",
"F. c #719091",
"G. c #789797",
"H. c #55A589",
"J. c #53A599",
"K. c #69B38B",
"L. c #578CA7",
"P. c #4D90AB",
"I. c #4A97A9",
"U. c #5597AA",
"Y. c #4B9CB2",
"T. c #7788A7",
"R. c #739BAA",
"E. c #4FA3AA",
"W. c #51A3A9",
"Q. c #4FA3B6",
"!. c #4FA4B8",
"~. c #51A3B6",
"^. c #51A4B9",
"/. c #5CA8B8",
"(. c #69A9BB",
"). c #74ABB2",
"_. c #0197D7",
"`. c #71B2C2",
"'. c #28C4D1",
"]. c #28E9F5",
"[. c #8A9690",
"{. c #8EAB97",
"}. c #A5AD98",
"|. c #888EA6",
" X c #8A97A4",
".X c #A09EB1",
"XX c #87A5A9",
"oX c #93A9AF",
"OX c #96B4B8",
"+X c #AAB3A8",
"@X c #B0B1AA",
"#X c #A5BAB5",
"$X c #B3B9B9",
"%X c #C0BEAE",
"&X c #98C495",
"*X c #AFC98F",
"=X c #9AC7AC",
"-X c #B9D7AB",
";X c #ADCCB0",
":X c #BAC6BA",
">X c #CAC8B9",
",X c #C5D7B6",
"<X c #84BAC6",
"1X c #9ABDC8",
"2X c #A7BAC4",
"3X c #B2BDC1",
"4X c #93C4CC",
"5X c #B6C7C7",
"6X c #B0CECE",
"7X c #A6C7D2",
"8X c #BAD5D6",
"9X c #C9CEC7",
"0X c #C8D6CA",
"qX c #D5DAC9",
"wX c #C7D8D6",
"eX c #D7DBD8",
"rX c #E2DCC1",
"tX c #D2E9D4",
"yX c #DAE5DA",
"uX c #E6EBDA",
"iX c #EBF3DA",
"pX c #CAD7E0",
"aX c #DBDEE5",
"sX c #CBE6E4",
"dX c #D9E6E6",
"fX c #E5EAE6",
"gX c #E9F5E5",
"hX c #ECF5E5",
"jX c #EDF3E8",
"kX c #F2F7E6",
"lX c #F3FAE7",
"zX c #F5FDE8",
/* pixels */
"        = =                                           = =           .   = =                                             = =     ",
"      ; ; =                       ;                 ; ; =   i       . ; ; =                       ;                   ; ; =     ",
"    ; y ;       N.            i             p.    y y ;   i N.u     ; y ;       N.            u             p.      ; y ;       ",
"  = ; ;             X.    p.                    ; y y   . . r g.( = ; ; . .         X.    p.                      = ; ;         ",
"  = =             X.i.X.                    * '.e s.B.s.s.s.s.I.L.s.s.j.I j < . . & y.X.                      ].  = =           ",
"                    X.;             y * * > s.Y.B.!.!./.`.`.`.`.`.`.U.U.P.Z.K 4 4 # & -             y         ;                 ",
"                  ; y ;             * K B.Y.Y.!.`.<X4X8XdXgXgXgXgXeX.X[ Q Q ! ! ! k k 8 3 O                                     ",
"  ;               ; ;           u., K L.<X<XOX<XsXgXgXgXlXzXlXgXgXgXeX{.[ v.|. X Xv.P Y V.J 4 + u.                ;             ",
"    . t                     o , [ {.+X#X0X+XF.G.6XtXuXyXyXyXkXeX4X4X`.U.R.wXdXpXwX).z.L.Y.Z.h.W ,       ; ;           i         ",
"    .     p.              o k Q U.wX:X[.7._ g c C.G.G.G.G.oXwXOXI./.(.W.U.`.<X<X`.~.!.!.!.L.m.b.i 6 +   ; y ;             p.    ",
"                      - = 9 L.5.V.S.' v x z z c Z.I.Z.j.V.).R.R.R.7XoXC.C.`.<X<X`.!.Y.^.^.U.L.m.c.h.n ,   ; ;                   ",
"y                   ; ; e Z.a.J m x z z x z C. X<X<XU.Z.P.U./.7XwXeX+X8.v.G. X XoX<X^.^.^.^.U.U.L.U.L.~ +       y               ",
"                . = : 7 S U m x x z z z z x.8XdXqXoX2X7X7X2X7XaXaXeX}.| g.j.] z.`.#XI.Q.Q.Q.!.!.~.^.~.z.q + u                   ",
"    i.            - 7 g C z z x z z z x z { D.8XiXqXfXfXaXdXaXaXaXeX5X2X5X6X<X4X1XF.B.!.!.Q.!.!.^.^.~.Z.W u n.i     i.          ",
"                * ^ v.' _ h z x x z x z z g g U pXzXzXzXjXzXjXfXfXjXkXzXlXyX5XG.) V.Y.Q.!.Q.Q.!.Q.Q.~.L.c.~ u +                 ",
"              . @ J XXwXqX[.v z z z z z z z z I 8XzXzXzXzXzXjXjXkXkXjXeX0X[._ m Y A.0.H.W.Q.!.^.^.Q.Q.U.b./ W 6 .               ",
"            . @ j C.OXdXzXuXS.C c c x z z z z I 8XzXlXiXuX8X7X7X6X6X4X(.~.{ h z x @.<.<.H./.`.<XR.L.^.!.L.g.! q # .             ",
"N.    ..    O j I ` k.6XkXkX5XC.a.I z h c Z ` R.dXlXeX$X|.x.s.P.!.^.^.!.Q.A.Z h C @.1.4.=X7X8XaX3XT.~.~.P.l./ ! q +   = = =     ",
"    ..i...o t J } } F.8XkXzXiX$XR.C.{ ' k.).:XdXhX0X Xf.P P d.z.!.!.!.!.!.E.9.N &.q.&X8XdXlXjXfXeX|.U.L.m.n.c.~ W %   ; y ;     ",
";     ..  ; t T.5X9XtXgXlXzXlXuX0X0X0X5X0X9XtX0X6XR./ ! g.P.P.Y.!.!.!.!.!.H.>.2.&X0XyXlXzXzXjXfXeX.Xm.M.n.b.h.~ ! u + ; ; ;     ",
"; ;     = t n.5XzXzXzXzXzXzXzXzXzXzXkXkXkX>X.X| I.U.j.d.a.V.V.I.!.!.!.!.E.9.<.K.tXzXzXzXiX8X7X6XpX2XL.m.m.j.n D P W , = = =  .  ",
"; ;     = d.eXjXzXzXzXzXzXzXzXzXzXzXkXfX9X{.' j.Q.Q.Y.Z.I c c s.!.!.!.!.E.9.2.=XgXzXiX,X4X/.Q.J.6X).Q.I.C.I d 8 D ~ u +    .i. .",
"; ;     , #XdXaXjXzXzXzXzXzXzXzXzXzXkXqX8.j.Z.Y.!.!.^.I.U Y B.I.!.!.!.!.!.J.K.0XiXiX*X3.W.Q.Q.9.F.Q.!.Q.I.U d 8 G ! W : =    .  ",
"        r @X( [ #XjXzXzXzXzXzXzXzXzXkXeX#XU.z.I.!.!.!.Q.I.I.Q.!.!.!.!.!.!.!.H.q.4.4.1.<.,.0.E.9.*.5.Q.E.A.U g s 5 G W 6         ",
"].      L +Xf c C.8XjXkXzXzXzXzXzXkXuX@X' n s.Z.I.!.!.!.!.!.!.!.!.!.W.!.!.W.9.+.+.+.+.+.*.$.V.#.$.U V.I m z d s D L ! F o       ",
"      F D [.D.S.1XaXfXkXzXzXzXzXzXuX@X' g d n J U Q.!.!.!.!.!.!.!.E.0.J.E.H.>.+.+.+.+.o.&.V #.A.6.Z x x z g d j H P P P ,     y ",
"      | f J G.[.=XtXjXzXzXzXzXzXiX%X_ b z z h M ` H.E.!.Q.!.!.!.!.E.0.0.J.9.+.+.+.+.+.<.&.@.@.5.F.I a.U n z d j H P P P W       ",
"  ; = [.T g c } K.0XlXzXzXzXzXzXiX}.b g z z g R o.>.0.B.Q.!.!.Q.!.E.9.9.H.>.+.+.+.+.+.+.=.*.*.-.R C a.V.I g z F H L P P r       ",
"  ; ; Q n z g A {.-XgXlXlXzXzXzXiX@XE g g z z $.o.o.%.U Z.Y.Q.Q.!.H.>.9.9.+.+.+.+.+.+.+.+.+.+.<.&.R m I m z J ~ ! w r L r   p.  ",
"    ; | b C U {.-X-X:XwXgXgXjXkXkXrX}.E R z g M *.-.M x I a.A.H.H.,.+.9.9.+.+.+.+.+.+.+.+.+.+.+.<.=.R z x Q f.~ ! r L ! r       ",
"    ; 3X[.E 5.}.&Xt.8.S. XXXoX#XaXaX>Xe.E M g v V %.h g x V &.>.<.+.<.9.9.<.+.+.+.+.o.=.*.o.+.+.:.-.R z m g.c.~ D G P ! r       ",
"    ; sX>XE %.O.*.@.M z x x h ) v.| G.#X:Xr.b m M E b M %.o.+.-.V @.*.>.>.+.+.+.+.+.o.%.@.-.o.+.<.$.Z n ^ b.n.f.l r ! ! r ; ;   ",
"  p.  sXrX_ N &.V C h h x x x g x R q.wXhXuXtXqXqX,X}.1.:.+.=.A x C %.o.+.+.+.+.+.+.+.o.:.*.*.:.:.@.A Y b.n.n.c.W w P ! G y ;   ",
"      sXiX>X8.S.S.8.' T z Z x z C 5.=XfXlXlXlXzXzXlXiX*X;.&.R A C C o.+.+.+.+.+.+.+.+.+.+.o.:.&.@.V Y l.n.b.c./ W q G P r ;     ",
"    = pXeX$XeXyXyXyX>X| v B v z v C.8XfXqX;X-X-XiXzXkXrX6.M A Z g C %.o.+.+.+.+.+.+.+.+.+.<.+.:.R Z Y n.c.[ ^ W 0 0 G ! r   ].  ",
"  = y R.>X| OX$X X;XeX}.b R b z C XX9X:Xr.-.<.1.;XgXiX-X;.%.=.E x C @.o.+.+.+.+.+.+.+.o.+.:.-.%.A z Y n.[ W ^ W 6 1 L G 0       ",
"    = g.}.T ` ' n ) XX{.E g g z J G.#X[._ 6.4.2.=XtX@X3.>.4.4.=.V %.o.+.+.+.+.+.+.<.3.4.1.*.@.A n J h.b./ W W k 5 1 w W 1       ",
"      Q q.| b x x x I G.{.7.T z x { oX@XoX,X0X{.;X+X;.:.2.t.4.<.o.o.o.+.+.+.+.+.+.4.;X*X4.%.@.C m h.n.n.c./ W 6 4 4 w l % y     ",
"      # 5.+XT z z z c R.tXqX[.T z z { XXoX#X,X}.q.E %.1.<.3.2.1.o.+.+.+.+.+.+.+.+.K.-Xt.<.$.A C Y m.n.n.c./ q % 1 < F 6 4       ",
"      . 0 {.D.v z { k.oXuXlXuX+X8.b v Z ;.E R 1.O.*.O.+.+.<.,.2.+.+.+.+.+.+.+.+.<.4.e.+.=.$.Z Y l.n.h.W ^ W 6 % 1 8 0 1 -       ",
"        - g.}.T z C.2XwXfXkXzXzXuX:X}._ %.=.-.1.+.+.+.+.+.+.+.+.+.+.+.+.+.+.+.+.+.+.+.+.o.-.{ l.n.c.T p 5 5 2 1 1 D 6 # - =     ",
"      ; ; W F.8.b &.=XwXaXeXyXuXkXlXiX9X>X-X-Xe.+.+.+.+.+.+.+.+.+.+.+.+.+.+.+.+.+.+.+.+.:.*.$.` Z k d % % % % 1 9 0 4 7 : =     ",
"    ; y ; 3 ] } b B -.XXwX}.[.|.5X5X@X8.6.4.e.1.+.+.+.+.+.+.+.+.+.+.+.+.+.+.+.+.+.+.+.+.:.-.@.N h 2 s 2 1 1 % 3 l 5 4 t ;       ",
"  - ; ;   , Q ) m x C m 1XuX9X[.| ) Z n M o.O.1.+.+.+.+.+.+.+.+.+.+.+.+.+.+.+.+.+.+.+.+.-.@.V A g s a p % % 1 8 0 1 9 :         ",
"  = =     * D J m m z c XXkXkXhX>X[.| T N O.+.+.+.+.+.+.+.+.+.+.+.+.+.+.+.+.+.+.+.:.-.%.@.@.A h d p p % 1 1 1 5 0 6 ,           ",
"          o k I U Y n n j.5XjXeXgXfXqX}.6.+.+.+.+.+.+.+.+.+.+.+.+.+.+.+.+.+.+.o.=.$.V V A A C g p % % 2 1 % % 1 6 4 .           ",
"            3 n I Y Q b m 7.5X#X2XeXhXuX,X*X3.+.+.+.+.+.+.+.+.+.+.+.+.o.o.o.*.*.$.A A N C g g p 1 1 1 8 5 % % 1 4 +             ",
"  ;         @ d x I g.] n z { [.m.T.3XiXlXiXe.+.+.+.+.+.+.+.+.+.+.+.o.*.%.@.@.@.A v x x d a d p 1 1 8 0 2 % 1 5 , :             ",
"      i       > a c Y [ / ] b m Y h.T.oX2XwX,X*X4.o.+.+.+.+.+.+.+.*.%.@.V A A C x x d j d s j 2 2 w 5 1 1 % 4 9 O     i         ",
"          p.    @ 3 d j d.n.[ b x J ^ l.n.T..XoX;X-Xt.+.+.+.+.+.=.@.V C C x z n z d d s j D w l l 0 % 1 < 4 9 ,           p.    ",
"                X 3 a a l g.n.h.Q n x ^ b.n.b.n.|.|.[.v.7.5.:.*.R V C z z z z J / g Q Q k w w 0 5 1 1 % 1 6 6                   ",
"y                 O a g s J z.h.[ ) x z ] b.l.b.n.b.b.k.` E A B A A x z z J h.b.h./ H F 0 8 0 1 % % 1 1 q 7 +   y               ",
"                . . @ a j d j z n z z n ^ b.[ 5.m.n.c._ A v v v z v g n K f.l./ G F l w D 0 1 1 1 1 4 % S .                     ",
"    i.            ; ; * < 5 d a g g n J ] c.c.c.b.b.k.{ ) m n j J K Q ^ f.f.~ W w q D l 0 1 1 1 4 8 6 S '._.        i.          ",
"                  ; y ; X , 5 a p s j J J Q n W Q Q ] l.c.h./ Q ! f.d.~ ~ ~ ! ! W l 6 2 1 % 2 w w 4 # . _.  y                   ",
"                    ; ; = . O < 5 s s s 2 2 2 a s d k ^ f.~ ~ ! G L ! ! G G F w 6 2 % 1 1 1 w F 4 O                             ",
"                      = =     X > 2 1 1 1 1 2 p a s a j l l F F r G D l 0 5 5 2 1 4 0 5 4 5 0 , o                               ",
"      = = =       w.            X @ $ % $ $ % $ 1 1 1 8 l l l q w 8 1 1 1 % % 4 w D l 4 4 $ @ X             p.        - = =     ",
"      ; y ;     w.i.w.            . X > 5 8 5 $ % 1 1 5 w 8 6 % < % 1 % % 1 % 8 H D 6 $ # .             ; ;           ; y ;     ",
"  d.  ; ; ;       w.              N.. = 7 : < 9 < % < % % % < % % 1 % 1 1 % < < 3 & + O           N.  = ; ;       p.  ; ; ;     ",
"      = = =  .        y               = = =   * O # # # # $ < < % < 1 1 % 4 4 O .     y               - = =           = = =  .  ",
"           .i. .                                                          y                                                .i. .",
"      ; =    .                                                                                                        ; =    .  ",
"                                                        ; ;         i                                                           "
};
