/* XPM */
static char *_c98f42f586844308139a3e55c51bfbeN445vX25Xofk5Mqq[] = {
/* columns rows colors chars-per-pixel */
"64 64 242 2 ",
"   c None",
".  c #1D2731",
"X  c #1E2932",
"o  c #1F293A",
"O  c #1F3136",
"+  c #1E373A",
"@  c #1D272F",
"#  c #222A34",
"$  c #242C3C",
"%  c #2A2D3D",
"&  c #213436",
"*  c #21353A",
"=  c #213A3A",
"-  c #2A3238",
";  c #2D3034",
":  c #1F413E",
">  c #23433E",
",  c #264C3E",
"<  c #294A3F",
"1  c #2C5B3D",
"2  c #2A573A",
"3  c #37563E",
"4  c #33493F",
"5  c #2D643E",
"6  c #2E6A3E",
"7  c #2E6537",
"8  c #336D3D",
"9  c #346939",
"0  c #3C7B3A",
"q  c #397638",
"w  c #397D2F",
"e  c #41763A",
"r  c #242D43",
"t  c #252F4A",
"y  c #292F43",
"u  c #2A314D",
"i  c #283848",
"p  c #323A49",
"a  c #2C3353",
"s  c #2C345B",
"d  c #2A3858",
"f  c #31365D",
"g  c #33395C",
"h  c #353955",
"j  c #252F51",
"k  c #313760",
"l  c #363C63",
"z  c #413E4F",
"x  c #244541",
"c  c #264B41",
"v  c #2C4B43",
"b  c #234549",
"n  c #2A4B4A",
"m  c #284848",
"M  c #364A46",
"N  c #2A5441",
"B  c #295741",
"V  c #355549",
"C  c #2A4A56",
"Z  c #374758",
"A  c #2D5B5D",
"S  c #2A5355",
"D  c #3B5555",
"F  c #356647",
"G  c #346E4E",
"H  c #374668",
"J  c #295A65",
"K  c #375666",
"L  c #395576",
"P  c #324C68",
"I  c #2E656C",
"U  c #36656A",
"Y  c #386777",
"T  c #34747E",
"R  c #33746E",
"E  c #47534C",
"W  c #454D5A",
"Q  c #445A54",
"!  c #41434B",
"~  c #47645B",
"^  c #566559",
"/  c #4B7B53",
"(  c #454969",
")  c #4D526D",
"_  c #475764",
"`  c #565E66",
"'  c #484D75",
"]  c #495579",
"[  c #525879",
"{  c #486868",
"}  c #586865",
"|  c #476976",
" . c #566777",
".. c #56746F",
"X. c #666A79",
"o. c #697A79",
"O. c #70726D",
"+. c #66705B",
"@. c #807762",
"#. c #3E8137",
"$. c #4F9D2C",
"%. c #529E2E",
"&. c #458A34",
"*. c #498D35",
"=. c #438239",
"-. c #458635",
";. c #4C9432",
":. c #4E9C35",
">. c #4B9937",
",. c #539F30",
"<. c #529938",
"1. c #4C8737",
"2. c #53A02F",
"3. c #53A030",
"4. c #5DA337",
"5. c #66A438",
"6. c #35857C",
"7. c #4E9B45",
"8. c #499A5A",
"9. c #56974F",
"0. c #6B924A",
"q. c #5DA650",
"w. c #69A948",
"e. c #78AC46",
"r. c #69AB58",
"t. c #469778",
"y. c #52946B",
"u. c #698379",
"i. c #7A8476",
"p. c #739071",
"a. c #74B072",
"s. c #8A8A79",
"d. c #928F7D",
"f. c #8AB574",
"g. c #95B560",
"h. c #AEC67D",
"j. c #387689",
"k. c #397996",
"l. c #326988",
"z. c #4C5982",
"x. c #545A86",
"c. c #555B88",
"v. c #545885",
"b. c #466887",
"n. c #467585",
"m. c #566892",
"M. c #487796",
"N. c #557287",
"B. c #787A87",
"V. c #6A7592",
"C. c #807D88",
"Z. c #3C858B",
"A. c #3C8799",
"S. c #3C919D",
"D. c #3D8DA3",
"F. c #3E83A0",
"G. c #3E92A9",
"H. c #3E90A3",
"J. c #449787",
"K. c #45859C",
"L. c #558597",
"P. c #439398",
"I. c #558589",
"U. c #6C8485",
"Y. c #7B8988",
"T. c #6D9497",
"R. c #718E96",
"E. c #74AC8F",
"W. c #438BA3",
"Q. c #4192A4",
"!. c #4194A9",
"~. c #4C97AD",
"^. c #5999A8",
"/. c #569DB2",
"(. c #5095AC",
"). c #7495A7",
"_. c #5BA2B4",
"`. c #70A6B0",
"'. c #70ADC1",
"]. c #84878A",
"[. c #969789",
"{. c #879995",
"}. c #89908F",
"|. c #87A399",
" X c #95B291",
".X c #ADAE97",
"XX c #8B95A7",
"oX c #96A5AA",
"OX c #88B3BC",
"+X c #8FB1B1",
"@X c #A4B4A4",
"#X c #B8B8A7",
"$X c #A8BABB",
"%X c #B5BDB6",
"&X c #A1ADB1",
"*X c #A19CAC",
"=X c #C2B9A8",
"-X c #94C68E",
";X c #ADC791",
":X c #9AD4AE",
">X c #A9C9BB",
",X c #BBC5B7",
"<X c #B2CEAE",
"1X c #C5C7B7",
"2X c #D2CEB1",
"3X c #CFE3B9",
"4X c #C6D897",
"5X c #9ABBC9",
"6X c #82B1C4",
"7X c #A9BDD2",
"8X c #96C6C3",
"9X c #A7C6C9",
"0X c #B8C9CA",
"qX c #A9C7D4",
"wX c #BAD9D4",
"eX c #B1D2D3",
"rX c #B4D0E1",
"tX c #C8C9C8",
"yX c #C5D5C7",
"uX c #C8CED6",
"iX c #C5D8D9",
"pX c #D7DAD8",
"aX c #D8D7CD",
"sX c #D9E6DA",
"dX c #DEF1DE",
"fX c #CCE4D2",
"gX c #E6E8D9",
"hX c #E9F3DB",
"jX c #F2F7D9",
"kX c #E9EBCC",
"lX c #DBDBE4",
"zX c #D7D8E4",
"xX c #C3D9E4",
"cX c #DDE5E3",
"vX c #CFE9E4",
"bX c #E7EBE4",
"nX c #ECF4E3",
"mX c #EEFAE3",
"MX c #E7F4E4",
"NX c #F3FEE3",
"BX c #F7FEE6",
"VX c #E2DDC4",
/* pixels */
"                                                              qX                                                                ",
"                                              ).^.^.^.^.^.^.(.(.^.^.^.^.^...} B.    ].                                          ",
"                                          (.W.A.G.G.~./.~._./._././.P.A.A.K.j.p p ! @ o.                                        ",
"                                      ~.!.Q.!./._._.'.xXsXdXdXdXhXpX].] H d d s s f y p M Y.                                    ",
"                                  Y Q._._._._.rXhXhXMXmXNXNXNXNXBXNXkX,XE Z W [ [  .) f m l.{ ].                                ",
"                                R.o.OXhX1XoX+XfXBXNXNXNXBXBXmXsXeXwX9X`.K 7XgXgXsXaX{.L L k.S.K _ *X                            ",
"                              vXnX2X@X@X^ > b L.@X@X@X@X@X>XbX>X!.G.G.H.k.'.9XqX7XOX!.!.!.!.!.b.x.) X.                          ",
"                          | Z.+X@X+.> > > v x J I I I A A ).&XU.T _.OX^.j.j.D.G.!.!.!.!.!.!.Q.b.v.v.( h                         ",
"                        P.U I A : x c x x : m k.!.W.Y l.W.`.k.I.XX0X[.{ A ).5X7X5XOX!.!.!.!.!.K.M.m.c.n.Y                       ",
"                      Q.U v > > x x x x b I.oX5X5X^.l.k.!.j.(.rXlXpX#X|.Q ..X.X.o.).OXQ.!.!.!.!.G.M.W.!.W.| ].                  ",
"                    | A c x c x x x x x L.uXmXkX}.5XqX7X7X$X7XlXzXpX[...D j.J P j./.@Xj.G.!.!.!.!.!.!.!.!.j.g C.                ",
"                  G < > x x x x x x c x { ..9XhX1XbXnXlXlXlXlXzXzXzX%X&X%XeX9X`.5XOXu.j.!.G.!.!.!.!.!.!.!.n.k h C.              ",
"                O.V V v x x x x x x x x > : J 8XBXNXNXmXmXnXbXlXlXbXBXmXBXgXuX$XI.D I D.G.G.!.!.!.!.!.!.!.M.z.' f B.            ",
"              U OXiX2X} x x x x c x x x x x b >XBXNXNXNXNXNXBXNXmXBXBXbXcX1X^ D x J A.8.t.S.!.!.G.G.G.!.!.K.c.) f h O.          ",
"            _ R.rXnXNX2X~ > > x x x x c x > x 5XBXnXmXNXmXiXwXxXiXwXwX`./.J.v > > b F :.3.7.P.G./.`.W.W.!.!.M.] f f y           ",
"        R.x | } L.sXNXjXoXU A S x x x x > > U eXBXbXgX,XoXM.k.M.!.!.!.!.G.S.A v x : 7 $.,.q.`.'.rXuX}.m.!.!.!.b.l l h !         ",
"        M : : : U eXBXNXpX|.K.R > > : C | I.eXjXNXyX[.l l k s l.!.!.!.!.!.!.Z.F , 9 w q.a.>XcXgXlXlXtXV.!.Q.M.v.c.( k h O.      ",
"        U.U.u.U.9XmXNXNXmXaXR.).o.u.u.).wXmXNXhX>XN.l k l L l.k.!.!.!.!.!.!.Z.#.w q.a.>XbXMXBXNXbXlXtXB.M.M.v.v.c.( k f z       ",
"        eXMXmXmXmXNXNXNXjXNXNXNXMXnXNXhX.X0X.X`.L.H s H k.!.!.!.!.!.!.!.!.P.8.$.r.>XMXmXjXNXNXbXlXlXaX*Xc.v.c.m.z.Z s k h       ",
"      uXwXmXNXNXNXNXNXNXNXNXNXNXNXnXMXhX#Xo.D k.Q.k.L H I I I k.!.!.!.!.!.J.:.$.a.gXNXNXNXnX0X'.'.'.uXoXL.M.m.| C $ j k f V.    ",
"      vXcXNXNXNXNXNXNXNXBXjXNXNXBXnXbX.Xo.D I G.!.!.H.U > : c l.!.!.!.!.!.J.:.q.9XjXNXjX;X:X(.D.W.P.9X^.!.Q.n.S > X r s k l     ",
"    iXpXuXcXmXNXNXNXNXjXNXNXNXNXBXbX.XQ l.k.G.G.!.!.!.Z.v J A.S.!.!.!.!.!.!.t.E.fXdXdXh.4.J.Q.Q.P.9.y.S.!.!.S.U > O t s k l     ",
"    #XE Z T.sXmXNXNXNXjXNXNXNXNXBXbXtX{.A.l.F.G.!.!.!.H.A.A.!.!.!.!.!.!.!.!.!.t.w.w.w.4.%.<.7.S.P.7.&.6.H.S.H.R > > O r s k X.  ",
"    .X; i C `.MXNXNXNXNXNXNXNXBXBXgX[.D i l.A.D.!.!.!.!.!.G.!.!.!.!.S.!.!.G.J.>.%.2.2.2.%.:.#.G A.#.8 G T V S m * = * a k l )   ",
"   .}.} E n.iXlXhXNXNXNXjXNXNXmXaXs.M = = n S J F.G.!.!.!.!.!.!.!.Q.8.J.!.!.t.2.,.,.,.,.3.-.6 F 6.6./ V m > x x = * : d k k (   ",
"} # P &X}.Y.wXcXMXNXNXNXBXBXBXkX[.4 > > x > : B Z.G.!.!.!.!.!.!.!.Q.8.7.P.J.:.2.,.2.,.3.3.=.6 F 6 Z.{.V S S x x > & i f k k l V.",
"=X; + x T a.-XNXNXNXNXjXjXBXjX=XM x x x , x 2 *.7.J.S.!.!.!.!.!.!.S.J.7.P.t.:.2.,.,.,.,.3.*.0 0 w q N C k.Z.V x x = j k k k k [ ",
"u.v x x b ..-XfXNXNXNXNXBXjXBX2X4 x x x > > -.2.2.3.G j.G.!.!.!.!.Q.7.3.t.:.2.2.,.3.,.,.,.3.,.,.,.;.6 x C T A > = i g g a s g ) ",
"m x x x 2 T.h.:XNXNXNXNXNXNXBXVXO.4 > > < x 7 ;.%.e 2 C j.G.!.!.!.t.:.7.t.:.3.3.3.,.,.3.,.,.,.,.,.,.=.9 v x x x d ( l h $ s k ) ",
"u.M , J E.wXh.:X#XqXbXbXbXmXmXbX2Xp.q 3 x x > -.;.N x < C I R 8.8.:.3.3.t.:.3.3.,.,.,.,.,.,.3.3.,.,.3.,.9 x x C z.( k g u s k ) ",
"tXd.3 G f.f.e.y.Q { U.U.U.).pXiXpXh.1.F < x c 7 *.< v > 2 q &.2.3.,.$.>.t.:.3.3.3.,.3.3.;.0 ;.%.,.%.<.-.q x i P c.( g u s k k ) ",
"vX2X4 q $.&.0 8 , > : : > b { } { T.%X%X+.v n n V N > 1 &.2.2.e 1 F #.>.7.:.3.3.%.,.3.3.=.6 q ;.,.%.<.8 B x C z.v.v.l $ s k l ) ",
"vX2XE 2 =.8 2 , , x x v c : , 2 #.E.cXmXVX1XyXyXtX;X0.;.,.,.*.B c , #.$.%.2.3.3.,.3.,.3.:.;.;.=.;.,.;.8 B C z.c.c.c.( $ a f k ) ",
"vXjX.X^ ~ G ~ Q v > x N c x , 7 y.fXmXmXNXBXBXBXBXjX4X0.0 -.8 5 , x #.2.%.3.2.2.,.,.,.,.%.%.3.;.e #.q 6 S ] c.c.[ v.( u t s g ' ",
"xXpX0XsXsXpXhXsXs.M > 2 x x c n T.MXhXaXfX3X3XhXBXBXmX.X3 , 5 2 c x 0 %.,.,.2.:.3.,.3.3.,.,.,.3.,.;.F 5 P v.c.[ Z k g % t f k ) ",
"qX=X .qXaX,X0XsXjXO., q v x > T fXiXaXs.=.4.7.:XhXBXgXh.e 9 e < x x 7 &.2.,.3.2.,.,.,.3.,.,.,.;.;.*.5 , P c.[ W H ( a # # s g ( ",
"5X%XM L i.m b T.kX@.> , > , > | ,X}.i.< 0 %.;.a.fXgX.X%.3.7.w.w , 2 q ;.,.,.,.,.2.2.:.:.$.%.<.0 F 5 m b K x.W y g k y # o s a ! ",
"|.f.4 > c x > m N.Y.E : > , > K +X%X^ K a.f.9.8XgX.X1.#.q.a.g.&.#.;.:.,.,.3.3.,.3.3.%.r.f.e.,.q 6 , b P z.c.) l l a $ r # t a ! ",
"p.9.p.< x x x x i OX.Xp.E > > > A 5X=X9XhXhX.X X}.3 ;.%.r.g.2.2.%.,.,.,.,.,.,.%.3.2.r.>X1Xe.*.q 6 , C z.c.c.c.) k y . . . r y M ",
"  :X#XM : x x x b 6XNXjX[.V > > > U Y.{.{. Xf.0.2 q %.%.2.2.9.7.%.,.,.,.3.,.,.3.3.2.a.<Xe.2.0 6 1 b P x.v.v.x.' a # . . o a r W ",
"    |.}.N > x I.} 6XnXNXjX,X[.4 v > 2 -.2 2 &.%.;.,.,.,.,.,.7.7.,.3.,.,.,.,.,.,.,.%.w.w.%.,.e 8 N L c.c.( p g l % @ . . t y p   ",
"    eX@XM , m `.1XrXcXnXNXBXhX,X#Xs.V e ;.1.;.%.3.,.,.,.,.,.%.%.,.,.3.,.3.,.%.3.3.,.%.%.,.,.<.F K x.c.) p & o $ # # . o j # M   ",
"    oXN.i.> 1 9.9XzXzXpXgXhXmXBXNXaX%X,X<X<X5.4.3.,.,.3.,.,.,.3.,.,.,.,.,.,.,.,.,.,.%.,.,.,.2.G G D v i = ; @ @ @ @ . t % # N.  ",
"      K ` v 2 e q.+XtXs...U.9XuXtX X} 9.e.e.5.2.,.,.,.,.2.,.,.,.3.,.3.%.,.,.2.,.,.,.,.,.%.%.%.q 6 8 > O = @ X X # @ o a # %     ",
"       .K Z < < c S 5XgX1X} Q V V < : 9 %.%.%.3.,.,.3.,.,.3.,.,.,.,.2.,.,.,.3.,.%.,.%.3.2.:.0 8 F 7 + + & & X @ @ . t $ # W     ",
"      R.Z v > x x b 5XNXBXgX=X} V > > q 2.2.3.3.,.,.,.,.,.,.,.3.,.,.,.,.3.,.,.,.,.,.%.;.;.=.6 6 6 , > O = X X X X # t $ $ X.    ",
"      { M S A v x x ).dXBXBXBXgX=Xo.Q w 2.:.,.,.,.3.,.,.,.,.,.,.3.,.,.,.,.,.,.,.,.,.=.8 6 6 6 5 c > = @ X @ @ X . # . t h       ",
"      XXZ J Y H m : C |.dX1X0XNXBXNX#Xp.5.%.,.3.,.,.3.,.,.3.,.,.,.,.3.,.3.3.2.3.,.e 8 F 6 5 B N , = @ @ @ o $ X @ @ # $ o.      ",
"        x x x Z K v c C T.}.V.5X0XmXBXMX;X5.3.3.,.3.,.,.,.,.,.,.2.2.2.2.;.#.&.&.#.5 1 1 1 , + i > O @ @ # t $ X . X X (         ",
"        { x m J z.) - > S B.' z.V.0XmXBXkXg.2.3.,.,.,.,.,.,.,.,.2.2.2.#.q 6 F 6 F B x x x > O O * X @ o t $ X X . X $ ].        ",
"          ..+ A C ' ( K v x x P z.m.XXXXuX3X;X5.2.2.3.,.,.,.,.,.2.&.#.6 6 6 1 , , > x = = = + * t # o y $ @ . . . r B.          ",
"            ` = O t ] c.) x m b Z L z.x.V.XXXX+X<X X5.,.,.,.,.,.;.F F 2 B c > i x c = = = + i a r u u $ @ . . . u N.            ",
"              p + O t ] x.] _ x > m L v.x.x.c.V.].B.....} / $.&.q 6 2 : x x x m C Z - P Z a y t u $ $ X X X . o h               ",
"              {.> : + C j.z.[ _ < x m P c.x.c.x.c.c.v.{ F F 8 8 F 5 B x x x C ] z.v.( s g y # t $ @ X X X @ r h                 ",
"                u.x i i i x m m x x x P c.D / | c.c.` F 7 , c x c x : x m i ] x.' g f y # j a $ # @ X X X # .                   ",
"                  Y.* o = & > i x b n L c.x. .c.c.v.D n m > > > b n i b L ] [ g h $ $ j s a $ . @ @ X $ r # o.                  ",
"                    }.i = O + O > C H ( ' ( ( ' ( ' z.x.] Z Z i H ' ' ' l l H a f f a t % # . . # # r y M                       ",
"                        B.+ # * = = = # = O X * = x L x.' ' ' ( k k k k k k k k f u % # . . X X r f a o.                        ",
"                          } o r X = O O O O = = x * i H k k k a j s g g f u a a r @ @ # . . X r s h ].                          ",
"                            B.X X X @ X @ O X O & X & * t y a a t s u r r X . . # . # u # r # r p                               ",
"                                ` . . @ @ X X @ . X o t t u y y r r # @ @ X X @ $ t a u # $ # `                                 ",
"                                    ( $ r # @ # X X X r r r # @ @ @ @ X X X # @ r a j r . E                                     ",
"                                          } Z p # # . . @ @ X X X X . . X X @ # p Z `                                           ",
"                                                ].` ` ` ` W - # X # # X X # $ W                                                 "
};
