/* XPM */
static char *_bab3bee7a4c4ff3c984d14384230feaCx9RXACltOFKQ0nR[] = {
/* columns rows colors chars-per-pixel */
"64 64 15 1 ",
"  c #1E1638",
". c #24194C",
"X c #2A1B5D",
"o c #453771",
"O c #32257B",
"+ c #8B73DA",
"@ c #504083",
"# c #D77643",
"$ c #FEE761",
"% c #2CE8F5",
"& c #0099DB",
"* c #F77622",
"= c #BE4A2F",
"- c #FEAE34",
"; c white",
/* pixels */
"    ..                     ..       ..                      ..  ",
"   XX.           X        XX. o    XX.           X         XX.  ",
"  XOX   +      o      @  OOX o+o  XOX   +      o      @   XOX   ",
" .XX      #  @          XOO   o  .XX      #  @           .XX    ",
" ..      #$#           %XX       ..      #$#           % ..     ",
"          #X      O    X.                 #X      O    X        ",
"         XOX              @              XOX                    ",
" X       XX     $                X       XX     $        X      ",
"   o                XX      @      o                XX     o    ",
"     @              XOX              @              XOX      @  ",
"           ..        XX    %               ..        XX         ",
"O         XX. @   &        X    O         XX. @   &     O       ",
"         .XX     &%&  o                  .XX     &%&  o         ",
"  $      ..       &  o+o          $      ..       &  o+o  $     ",
"                      o X    XX                       o         ",
"                        X   XOX                                 ",
"        ..       ..                     ..       ..             ",
"+  *   XX. o    XX.        ...  +  *   XX. o    XX.        ...  ",
"  *$* OOX o+o  XOX         XOX    *$* OOX o+o  XOX         XOX  ",
"X  * XOO   o  .XX        @ XXX  X  * XOO   o  .XX        @ XXX  ",
"XX  .XX       ..           ...= XX  .XX       ..           ...= ",
"XX  ..                       =$=XX  ..                       =$=",
"XX     @                   X. = XX     @                   X. = ",
"                 X                            X                 ",
"%       +      o      @         %        @      o      +        ",
"   @      #  @          .. o   O   @              @  #  .. o   O",
"         #$#           %X.o+o           %           #$# X.o+o   ",
" XX       #X      O    XX. o     XX     X    O      X#  X. o    ",
" XXXX    XOX            .     @  XXXX               XOX .     @ ",
"  XOX    XX     $                 XOX          $     XX         ",
"  XXXX              XX            XXXX    XX                    ",
"  XXXX              XOX      XX   XXXX   XOX                 XX ",
" @         ..        XX     XOX  @       XX        ..       XOX ",
"          XX. @   &         XX               &   @ .XX      XX  ",
"  . o    .XX     &%&  o       %   . o    o  &%&     XX.       % ",
" .O.   . ..       &  o+o @       .O.   .o+o  &       ..  @      ",
"  .    .              o           .    . o                      ",
"                             O                               O  ",
"          @                               @                     ",
"                    XX    o                         XX    o     ",
"    ..       o      XX                       o      XX      ..  ",
"   XX.   %                            o  %                 XX.  ",
"  XOX       XX           ..       &  o+o    XX            XOX   ",
" .XX        XOX   =   o  .XX     &%&  o     XOX   =   o  .XX    ",
" ..          XX  =$= o+o  XX. @   &          XX  =$= o+o ..     ",
"         @        =   o    ..        XX  @        =   o         ",
"                      ..            XOX               ..        ",
" X                 ..XX.            XX             ..XX. X      ",
"   o      O    +  .XXXX  XX     $         O    +  .XXXX    o    ",
"     @            .XOX.  XOX                      .XOX.      @  ",
"                  XXXX.   #X      O    X          XXXX.         ",
"O                .XX..   #$#           %         .XX..  O       ",
"                 .. &     #  @                   .. &           ",
"  $      XX  @     &%&  +      o      @  XX  @     &%&    $     ",
"         XOX        & O          X       XOX        & O         ",
"          XX.                             XX.                   ",
"           ..              ..       XOX    ..                   ",
"   ...   -            @  @ .XX      XX   -            @    ...  ",
"   XOX  -$-         XX      XX.       % -$-         XX     XOX  ",
" @ XXX   -       + .XX       ..  @       -       + .XX   @ XXX  ",
"   ...=    O       ...                     O       ...     ...= ",
"     =$=                             O                       =$=",
"   X. =                                                    X. = ",
"                            XX    o                             "
};
