/* XPM */
static char *_b467dfeb6de4093d6e5fe2e06f1ae4dyQzV99VSU54zfwA5[] = {
/* columns rows colors chars-per-pixel */
"64 64 132 2 ",
"   c None",
".  c #101010",
"X  c gray7",
"o  c #131313",
"O  c gray8",
"+  c #151515",
"@  c #181818",
"#  c #191919",
"$  c gray10",
"%  c gray11",
"&  c #1E1E1E",
"*  c gray12",
"=  c gray13",
"-  c #222222",
";  c #232323",
":  c gray14",
">  c #252525",
",  c gray15",
"<  c #272727",
"1  c #282828",
"2  c gray16",
"3  c #2A2A2A",
"4  c gray17",
"5  c #2C2C2C",
"6  c #2D2D2D",
"7  c gray18",
"8  c #2F2F2F",
"9  c gray19",
"0  c #313131",
"q  c #323232",
"w  c gray20",
"e  c #343434",
"r  c gray21",
"t  c #373737",
"y  c gray22",
"u  c #393939",
"i  c #3A3A3A",
"p  c gray23",
"a  c #3C3C3C",
"s  c #3F3F3F",
"d  c gray25",
"f  c #414141",
"g  c #434343",
"h  c gray27",
"j  c #464646",
"k  c gray28",
"l  c #484848",
"z  c #494949",
"x  c gray29",
"c  c #4B4B4B",
"v  c #4C4C4C",
"b  c gray30",
"n  c #4E4E4E",
"m  c gray31",
"M  c #505050",
"N  c #515151",
"B  c gray32",
"V  c #535353",
"C  c gray33",
"Z  c #555555",
"A  c #565656",
"S  c gray34",
"D  c #585858",
"F  c gray35",
"G  c #5A5A5A",
"H  c #5B5B5B",
"J  c gray36",
"K  c #5D5D5D",
"L  c gray37",
"P  c #5F5F5F",
"I  c #606060",
"U  c gray38",
"Y  c #626262",
"T  c gray39",
"R  c #646464",
"E  c #656565",
"W  c gray40",
"Q  c #676767",
"!  c #686868",
"~  c DimGray",
"^  c #6A6A6A",
"/  c gray42",
"(  c #6C6C6C",
")  c #6D6D6D",
"_  c gray43",
"`  c #6F6F6F",
"'  c gray44",
"]  c #717171",
"[  c #747474",
"{  c gray46",
"}  c #767676",
"|  c #777777",
" . c gray47",
".. c gray48",
"X. c #7B7B7B",
"o. c #7C7C7C",
"O. c gray49",
"+. c #7E7E7E",
"@. c gray50",
"#. c #808080",
"$. c #818181",
"%. c gray51",
"&. c #838383",
"*. c #848484",
"=. c gray52",
"-. c #868686",
";. c gray53",
":. c #888888",
">. c #898989",
",. c gray54",
"<. c #8B8B8B",
"1. c gray55",
"2. c #8D8D8D",
"3. c #8E8E8E",
"4. c gray56",
"5. c #909090",
"6. c gray57",
"7. c #929292",
"8. c #939393",
"9. c gray58",
"0. c #959595",
"q. c gray59",
"w. c #979797",
"e. c #989898",
"r. c gray60",
"t. c #9A9A9A",
"y. c #9B9B9B",
"u. c gray61",
"i. c #9D9D9D",
"p. c gray62",
"a. c #9F9F9F",
"s. c #A0A0A0",
/* pixels */
"                                                                                                                                ",
"                                                                                                                                ",
"                                                                                                                                ",
"                                                                                                                                ",
"                                                                                                                                ",
"                                                                                                                                ",
"                                                                      p 6 0 6 p   p 1 t                                         ",
"                                                                    1 $ ' &.' % > > ) > 6 6 t                                   ",
"                                                          - ..<.<.<.&.m D D N D @.1.t.1.=.{ $ p                                 ",
"                                                        @.1.p.s.p.p.p.q.6.<.N x ^ q.t.6.^ Y x 1                                 ",
"                                                      @.p.p.p.p.p.p.p.p.p.p.1.D L Y R Y C N N C                                 ",
"                                            k 6 6 s @.p.p.p.p.p.p.p.p.p.p.s.p.1.D m N D 1.6.q.=.N                               ",
"                                    t 6 6 p @.<.<.1.p.p.p.p.p.p.p.p.q.6.p.q.q.6.6.q.q.6.p.p.s.p.&.p g                           ",
"                                  t % ..) =.t.p.p.s.p.p.p.p.p.p.p.1.D D =.D N D 1.p.p.s.p.p.p.p.t.<.{                           ",
"                                  t @.t.&.@.t.p.p.p.p.p.p.p.p.p.1.D L R ) R R R ) 1.p.p.p.p.p.p.t.&.' t                         ",
"                                k @.p.p.6.@.q.p.p.p.p.p.p.p.p.1.C L ) 6.q.q.t.1.R L 1.p.p.p.p.p.6.@.6.@.k                       ",
"                                1 1.p.p.t.@.@.q.p.p.p.p.p.p.q.C x R 6.p.p.p.p.q.) L D 6.p.p.p.q.@.@.t.<.6                       ",
"                              t > 1.p.p.p.q.@...q.p.p.p.p.p.6.m D ) t.p.p.p.p.p.6.^ D q.p.p.t.@.@.q.p.<.p                       ",
"                              1 @.p.p.p.p.p.q.@.@.t.p.p.p.p.6.N Y 6.p.p.p.p.p.p.p.t.q.p.p.p.t.@.q.p.p.p.@.g                     ",
"                            p $ &.p.p.p.p.p.p.q.&.q.p.p.p.p.q.m R t.p.p.p.p.p.p.p.q.6.6.p.p.q.@.t.p.p.p.1.- p                   ",
"                          p x g D 1.p.p.p.p.p.p.q.&.q.p.p.p.6.m Y 6.t.p.p.p.p.p.<.L C Y q.p.t.@.q.p.p.p.p...6                   ",
"                      p - % L R L D 6.s.p.p.p.p.t.@.t.p.p.p.q.N D R ) 6.p.p.t.<.L <.q.6.t.p.q.@.t.p.p.p.p.<.0                   ",
"                      6 C <.q.6.Y m 6.p.p.p.p.p.q.@.q.p.p.s.6.D m x D ) 6.q.^ m C q.p.p.p.q...@.t.p.p.p.p.<.0                   ",
"                    g D 6.p.p.t.R m <.t.p.p.p.p.t.@.@.t.p.p.p.q.<.N x L R ^ D m <.p.p.p.t.@.@.q.p.p.p.p.p.<.0                   ",
"                    t =.p.p.p.6.R x C q.s.p.p.p.p.q.@.q.p.p.p.p.p.<.C N D D x C q.p.p.t.q.@.q.p.p.p.p.p.p.<.0                   ",
"                s 6 L q.p.p.q.{ ^ D N 6.p.p.p.p.p.q.@.t.p.p.p.p.p.p.q.<.D N C 1.p.p.t.@.&.q.p.p.p.p.p.p.p.<.6                   ",
"            t 6 C R 6.p.p.p.p.t.6.R N 6.s.p.p.p.t.@.@.t.p.p.p.p.p.p.p.p.6.q.q.t.q.t.q.&.q.p.p.p.p.p.p.p.s.1.- 0                 ",
"          t $ D 6.t.p.p.p.q.p.p.q.R C q.p.p.p.p.q.@.6.p.p.p.p.p.p.p.p.p.p.t.q.&.@.@.&.q.p.p.p.p.p.p.p.p.p.p.@.-                 ",
"          6 ..6.q.q.t.t.q.' 1.q.<.C <.t.p.p.p.t.@.@.t.p.p.p.p.p.p.p.p.p.q.@.&.q.t.t.q.p.p.p.p.p.p.p.p.p.p.p.p.1.@.              ",
"          0 @.' ^ ^ R ) <.R N C C D q.p.p.p.p.6.@.6.p.p.p.p.p.p.p.p.p.t.@.@.q.p.p.p.p.p.p.s.p.s.p.p.p.p.p.p.p.p.p.@.>           ",
"          1 D L D L L L L x C <.q.q.p.p.p.p.q.@.@.t.p.p.p.p.p.p.p.p.p.6.@.6.p.p.p.p.p.p.p.q.q.6.p.p.p.p.p.p.p.p.p.p.1...        ",
"          1 k N N N N N N C 1.p.s.p.p.p.p.t.&.@.q.p.p.p.p.p.p.q.t.t.q.&.@.t.p.p.p.p.p.q.<.C N D 6.q.p.p.p.p.p.p.p.p.s.1.0       ",
"          0 &.6.q.6.6.6.q.6.p.p.p.p.p.p.p.p.t.t.p.p.p.p.p.p.q.&.@.@.&.q.t.p.p.p.p.q.<.C m x Y ) 1.Y <.p.p.p.p.p.p.p.p.<.0       ",
"          0 <.p.p.p.t.t.p.p.p.p.p.p.p.p.p.p.p.p.q.t.t.t.t.q.@.q.q.t.t.p.p.p.p.t.1.D N x D R 1.t.6.C C q.p.p.p.p.p.p.p.<.6       ",
"          6 <.t.t.q...@.q.t.q.t.p.p.p.p.p.q.q.q.&.@.@.@.@.@.@.t.p.p.t.p.p.p.p.q.D D L R ^ ) t.p.p.&.C 6.s.p.p.p.p.p.s.1.> g     ",
"        0 - <.&.@.@.....@.@.@.@.q.p.p.p.t.&.@.&.q.t.q.t.t.q.t.p.p.t.&.t.p.p.p.6.m D ^ 1.q.t.p.p.q.C C q.p.s.p.p.s.p.p.p.1...k   ",
"    p 1 > @.p.t.t.q.t.t.t.t.6.@.@.t.p.p.p.t.t.t.p.p.q.6.6.q.p.p.p.q.@.t.p.p.s.q.C x R t.p.p.p.p.6.C <.p.p.6.6.q.q.6.q.p.p.@.6   ",
"    p ..1.p.p.p.p.p.p.p.p.p.p.q.@.t.p.p.p.p.p.p.p.<.C N N C <.q.p.t.@.t.p.p.p.p.<.m Y 6.p.p.p.p.1.C 6.p.1.C N N m N C 1.1.- %   ",
"  k { 6.p.p.p.s.p.p.p.p.p.p.p.t.@.q.p.p.p.q.6.q.1.C x D L N C Y q.t.@.q.p.p.p.p.q.D L ) 6.p.p.<.C C q.q.D m Y L Y D x C ..X p   ",
"  > k D <.q.6.6.6.p.p.p.p.p.p.q.@.t.p.p.q.C N N N L R ) 6.q.6.q.p.t.&.q.p.p.p.p.p.1.N D ) t.q.C C 1.p.q.C <.6.' 1.) D x k -     ",
"  g x x C D D C C 1.s.p.p.p.p.t.@.t.p.p.q.N D L R ) 6.t.p.p.p.p.p.p.q.=.6.t.t.p.p.q.C x Y q.q.L 1.p.p.<.Y 6.p.t.p.6.) L x g     ",
"    6 D 1.6.q.1.C D 1.q.q.p.p.t.@.t.p.s.6.N D ^ 1.t.p.p.p.p.p.p.t.q.p.q.&.@.@.t.p.p.1.C D q.p.q.p.s.6.Y <.p.p.p.p.p.6.L 6       ",
"    > L t.s.p.p.1.Y N m C q.p.t.@.t.p.p.6.N L ) t.p.p.p.p.p.p.p.1.L 6.p.t.q.@.q.t.p.p.6.6.p.p.p.p.p.q.C 6.p.p.p.p.p.6.D >       ",
"    g N 1.p.p.p.t.) R Y N 1.p.t.@.6.p.p.q.N R 6.p.p.p.p.p.p.p.t.^ N q.p.p.p.q.&.@.t.p.s.p.p.p.p.p.p.6.D 6.s.p.p.p.t.) m         ",
"      6 R q.p.p.p.t.q.1.Y D q.t.@.&.t.s.6.N R q.p.p.p.p.p.p.p.q.R N q.p.p.p.p.q.&.q.p.p.p.p.t.t.t.t.1.L 1.p.p.p.p.6.L 6         ",
"      s m ) q.p.p.p.p.t.^ N 6.p.t.t.p.p.6.N Y q.p.p.p.s.p.s.p.1.L m 6.s.p.p.p.p.q.&.q.q.t.q.&.@.@.@.@.<.R 1.p.s.t.) m           ",
"        1 L 6.p.p.p.p.p.1.C <.p.p.p.p.p.q.C D <.q.q.t.q.6.q.<.L N C q.p.p.p.p.p.t.@.@.@.@.&.q.q.t.q.&.6.<.L 6.p.6.L             ",
"        g m ) 6.p.p.p.p.q.N C 6.p.p.p.p.p.q.1.L C C &.D C D L <.6.q.p.p.p.p.p.p.p.t.q.t.t.t.p.p.p.p.q.&.6.C <.q.) m             ",
"          k m ) 6.p.p.s.q.Y m 6.p.p.p.p.p.s.p.q.<.C C C <.6.q.p.p.p.p.p.p.p.p.p.q.6.6.q.q.6.6.q.p.p.t.@.1.C C &.C               ",
"            1 m ) t.p.p.q.Y N 6.s.p.p.p.p.p.p.p.p.6.6.q.p.p.p.p.t.p.p.p.p.p.p.<.C m N N m m N C <.6.t.@...=.D m                 ",
"            t + L 6.p.p.q.N C q.p.p.p.p.p.p.p.p.p.p.s.s.p.p.p.q.=.t.p.p.p.p.q.C x Y Y L Y Y L x m C <.6.@...<.                  ",
"              - x ) 6.p.<.C <.p.p.p.p.p.p.p.p.p.p.t.t.t.t.t.6.&.q.p.p.p.p.p.<.N Y 1.6.) 6.6.R L D x C q.q.@.R                   ",
"              t X m ) 1.C k &.<.<.t.p.p.p.p.t.q.q.&.@.@.@.@.@.@.t.p.p.p.p.<.C L ) t.t.{ t.q.^ R R D m <.t.@.                    ",
"                0 X m D m 1 6 0 p &.p.t.t.q.@.@.&.q.t.t.t.q.t.t.p.p.p.p.q.C x R 6.p.p.q.p.q.{ <.) Y x C {                       ",
"                  t > 1 g         p ..@.@.@.&.q.t.p.p.p.p.p.s.p.p.p.1.1.&.m D ) t.p.p.p.p.t.t.p.6.) D p                         ",
"                                  t $ Y 6.q.=.<.<.<.<.<.<.<.<.<.1...> 1 $ p Y <.p.p.p.p.p.p.p.p.p.&.N                           ",
"                                    t t @.@.s 6 t 0 0 0 t 0 0 0 0 6 p   t . m ^ 6.t.p.p.p.p.p.p.&.                              ",
"                                        g k                               t 1 m L ) q.p.p.p.1.@.                                ",
"                                                                              s + C 6.q.1.@.p                                   ",
"                                                                                0 + N C t                                       ",
"                                                                                  t > s                                         ",
"                                                                                                                                ",
"                                                                                                                                ",
"                                                                                                                                "
};
