/* XPM */
static char *c579b9f029e548cbd008e3f46bb2fc6eXkfkqzgDJuWtXpwC[] = {
/* columns rows colors chars-per-pixel */
"64 64 128 2 ",
"   c #06030C",
".  c #09070F",
"X  c #080511",
"o  c #0D0B13",
"O  c #0B061A",
"+  c #0E091B",
"@  c #120E1C",
"#  c #131215",
"$  c #15131C",
"%  c #19171D",
"&  c #1C1B1E",
"*  c #2F271B",
"=  c #3E2A1F",
"-  c #120C24",
";  c #150D2D",
":  c #151124",
">  c #191623",
",  c #1C1A23",
"<  c #17112A",
"1  c #1A142C",
"2  c #170D32",
"3  c #180E35",
"4  c #190F3A",
"5  c #1A1136",
"6  c #1F1A30",
"7  c #1B113C",
"8  c #201F24",
"9  c #211D2C",
"0  c #221B37",
"q  c #251E3B",
"w  c #0A2C3B",
"e  c #232225",
"r  c #252428",
"t  c #2A292D",
"y  c #252035",
"u  c #292534",
"i  c #2E2D30",
"p  c #2A2639",
"a  c #323235",
"s  c #373639",
"d  c #3C3B3D",
"f  c #452C1E",
"g  c #413935",
"h  c #625C36",
"j  c #1C1042",
"k  c #1F124B",
"l  c #221844",
"z  c #211253",
"x  c #25145D",
"c  c #2C2349",
"v  c #3B3747",
"b  c #3E3E41",
"n  c #342953",
"m  c #261B66",
"M  c #2C1F76",
"N  c #3C2E66",
"B  c #2E207C",
"V  c #433472",
"C  c #49397A",
"Z  c #394344",
"A  c #0A5473",
"S  c #444345",
"D  c #464549",
"F  c #48474B",
"G  c #4C4C4D",
"H  c #4C4A52",
"J  c #545454",
"K  c #565659",
"L  c #5C5C5C",
"P  c #605D5C",
"I  c #5F5E61",
"U  c #636363",
"Y  c #68676B",
"T  c #6B6B6B",
"R  c #747474",
"E  c #7C7C7C",
"W  c #81492A",
"Q  c #BF492B",
"!  c #AE6136",
"~  c #F7771C",
"^  c #C66D3B",
"/  c #D0733F",
"(  c #D87741",
")  c #DB972A",
"_  c #DF9A2B",
"`  c #FEAF31",
"'  c #B2A344",
"]  c #D5C352",
"[  c #FEE861",
"{  c #4F3E84",
"}  c #7F7F80",
"|  c #725EB1",
" . c #8C74DB",
".. c #009ADC",
"X. c #26DBE6",
"o. c #28E9F5",
"O. c #808080",
"+. c #818181",
"@. c gray51",
"#. c #838383",
"$. c #848484",
"%. c #858585",
"&. c #868686",
"*. c gray53",
"=. c #888888",
"-. c #898989",
";. c #8A8A8A",
":. c #8B8B8B",
">. c #8C8C8C",
",. c #8D8D8D",
"<. c #8E8E8E",
"1. c gray56",
"2. c #909090",
"3. c gray57",
"4. c #929292",
"5. c #939393",
"6. c #949494",
"7. c #959595",
"8. c gray59",
"9. c #979797",
"0. c #989898",
"q. c gray60",
"w. c #9A9A9A",
"e. c #9B9B9B",
"r. c gray61",
"t. c #9D9D9D",
"y. c gray62",
"u. c #9F9F9F",
/* pixels */
"3 3 3 3 k k 3 3 3 3 3 3 3 3 3 3 3 3 3 3 3 3 3 3 3 3 3 z k 3 3 3 3 3 3 3 k k 3 3 3 3 3 3 3 3 3 3 3 3 3 3 3 3 3 3 3 3 3 3 l k 2 2 ",
"3 3 3 x x k 3 3 3 3 3 3 3 3 3 3 3 x 3 3 3 3 3 3 3 3 x x k 3 V 3 3 3 2 m x k 3 3 3 3 3 3 3 3 3 3 3 x 3 3 3 3 3 3 3 3 2 x m k 3 3 ",
"3 3 x B x 3 3 3  .3 3 3 3 3 3 V 3 3 3 3 3 3 { 3 2 B B x 3 V  .V 3 3 x M x 3 3 3  .3 3 3 3 3 3 V 3 3 3 3 3 3 { 3 3 2 x B x 3 3 3 ",
"3 k x O ; 3 3 3 3 3 ( 3 3 { 3 3 3 3 3 3 3 3 3 3 x B B 2 3 3 V 3 3 k x x 3 3 3 3 3 3 ( 3 3 { 3 3 3 3 3 3 3 3 3 3 3 z x x 3 3 3 3 ",
"3 k k ; 3 3 3 3 3 ( [ ( 3 3 3 3 3 3 3 3 3 3 3 o.x m 3 3 3 3 3 3 3 k k 3 3 3 3 3 3 ( [ ( 3 3 3 3 3 3 3 3 3 3 3 o.3 k k 3 3 3 3 3 ",
"3 3 3 3 3 3 3 3 3 2 ( x 3 3 3 3 3 3 B 3 3 3 3 x l 2 3 3 3 3 3 3 3 3 3 3 3 3 3 3 3 3 ( x 3 3 3 3 3 3 B 3 3 3 3 x 3 3 3 3 3 3 3 3 ",
"3 3 3 3 3 3 3 3 3 x M m 3 3 3 3 3 3 3 3 3 3 3 3 4 3 { 3 3 3 3 3 3 3 3 3 3 3 3 3 3 x M x 3 3 3 3 3 3 3 3 3 3 3 3 3 3 3 3 3 3 3 3 ",
"3 x 3 3 3 3 3 3 3 x x 3 3 3 3 3 [ 3 3 3 3 3 3 3 2 3 3 3 3 3 3 3 3 x 3 3 2 2 2 3 3 x x 3 3 3 3 3 [ 3 3 3 3 3 3 3 3 x 3 3 3 3 3 3 ",
"3 3 3 V 3 3 3 3 3 3 3 3 3 3 3 3 3 3 3 3 x x 3 3 3 3 3 3 { 2 3 4 2 3 ; l 4 < - ; - - - ; 2 3 3 3 3 3 3 3 x x 3 3 3 3 3 V 3 3 3 3 ",
"3 3 3 3 3 { 3 3 3 3 3 3 3 3 3 3 3 3 3 3 x B x 3 3 3 3 3 2 - - : - - $ r Z N , @ $ b $ - $ ; 2 3 3 3 3 3 x M x 3 3 3 3 3 3 { 3 3 ",
"3 3 3 3 3 3 3 3 3 3 3 k k 3 3 3 3 3 3 3 3 x x 3 3 3 4 X.- $ Z U L P J F I I F G U :.I K s o - 2 3 3 3 3 4 x x 3 3 3 3 3 3 3 3 3 ",
"M 3 3 3 3 3 3 3 3 3 x x k 3 { 3 3 3 ..3 3 3 3 3 3 3 2 c Z T ,.0.0.0.3.+.' U G T ,.0.,.T K e n 5 3 3 ..3 3 3 3 3 M 4 3 3 3 3 3 3 ",
"4 3 3 3 3 3 3 3 3 k x x 3 3 3 3 3 ..o...5 7 N 2 ; ; 1 F :.r.r.u.r.u.u.0.r.,.U L T T Y J J Z 0 5 3 ..o...3 3 V 3 3 3 3 3 3 3 3 3 ",
"3 3 [ 3 3 3 3 3 3 k k 3 3 3 3 3 3 3 ..2 2 N | 9 $ % Z >.r.r.u.r.u.r.u.u.u.u.2.U J J I ,.3.:.F 1 3 3 ..3 3 V  .V 3 3 [ 3 3 3 3 3 ",
"3 3 3 3 3 3 3 3 3 3 3 3 3 3 3 3 3 3 ; + # % u +.>.>.7.u.u.u.r.u.u.r.3.7.8.3.3.3.3.7.8.r.r.u.,.b , ; 3 3 3 3 V 3 3 3 3 3 3 3 3 3 ",
"3 3 3 3 3 3 3 3 3 3 3 3 3 3 3 3 3 3 @ 8 U R +.r.u.u.u.u.r.u.u.u.0.E L Y T K K $.0.u.u.u.r.r.r.3.R > ; 3 3 3 3 3 3 3 3 3 3 3 3 3 ",
"3 3 3 3 3 3 3 3 k k 2 3 3 3 3 3 3 j p T 6.;.E r.r.u.r.u.r.u.u.0.E L U R R R R T +.0.u.r.u.u.0.:.E d 3 3 3 3 3 3 3 3 3 3 3 3 3 3 ",
" .3 3 ~ 3 3 3 x m l 2 V 3 3 3 2 x 4 H 8.r.8.E ,.r.r.u.u.u.r.0.E J U &.0.r.r.7.Y L E 0.u.r.r.3.+.4.$.> ; 3 3 3 3 3 3 4 l k k 3 3 ",
"3 3 ~ [ ~ 3 M B x 3 V  .V 3 3 x m < J 8.u.r.;.E ,.r.u.r.u.u.7.K J T 0.r.r.u.u.&.U L 0.u.u.3.+.&.0.>., ; 3 3 3 3 3 3 3 x B x 3 3 ",
"x 3 3 ~ 3 m B B 3 3 3 V 3 3 k x 4 u E q.u.r.r.<.+.,.r.u.u.u.5.J U =.r.r.u.r.r.r.*.} 0.u.r.,.&.0.u.0.J : ; 3 3 3 3 { 3 x x x 3 3 ",
"x x 3 3 k x x 3 3 3 3 3 2 2 z 7 > Z | r.r.r.u.r.>.=.0.r.r.u.7.J U 0.u.u.r.u.r.r.9.5.0.r.r.,.,.r.r.u.$., + 3 3 3 3 3 3 k k k Q 3 ",
"x x 3 3 k k 3 3 3 3 3 3 3 ; ; > Z Z E 6.u.u.r.u.r.2.,.r.u.u.7.J U 7.r.r.r.u.u.3.Y U R 0.r.:.,.r.r.u.0.L @ 3 3 3 3 3 3 3 3 Q [ Q ",
"x x 3 3 3 3 3 { 3 3 3 3 2 X o r P U L ' r.r.u.u.r.5.:.r.r.u.7.J L U E 7.r.r.3.U $.3.3.r.0.:.3.r.u.u.u.R $ 2 2 3 3 3 3 x k 3 Q 3 ",
"3 3 3 3 3 3 3 3 3 3 3 2 ; % L :.7.O.K E r.u.u.r.r.3.$.r.u.u.8.I J G L E 1.E K K 3.u.u.r.:.+.3.r.u.r.r.E - 2 3 3 3 3 3 3 3 3 3 3 ",
"o.3 3 3 3 3 3 3  .3 3 2 # L 7.u.r.#.K T 7.u.r.u.r.7.O.,.r.u.r.r.:.L J L U L J +.r.r.r.3.+.,.r.u.u.u.u.R $ 2 3  .3 3 3 3 3 3 3 3 ",
"3 3 3 { 3 3 3 3 3 2 ! - t &.u.u.7.E L J $.r.u.r.u.r.>.>.r.u.r.u.r.:.U L L J L ,.u.r.7.,.1.0.r.u.r.r.u.R - ^ 3 3 k k 3 V 3 3 3 B ",
"3 3 3 3 3 3 3 3 ; W h g Y 7.u.r.6.+.T J +.r.u.u.u.r.&.>.r.r.u.r.r.r.0.*.T T *.r.r.0.+.,.r.r.u.u.u.u.r.E f ' / 3 x k V  .V 3 3 3 ",
"3 x x 3 3 3 3 ; + 8 P E 7.u.r.0.r.7.E L $.r.r.u.r.| ' 6.u.u.r.u.r.u.r.r.r.9.1.:.,.,.,.r.r.u.u.r.u.r.r.:.d f - 3 x k 3 V 3 3 3 3 ",
"3 x x x x 3 3 - t Y ,.0.0.r.0.&.7.6.R T 3.u.u.r.0.&.:.0.r.r.u.u.r.u.u.r.1.=.,.1.3.3.r.u.u.r.r. .u.u.r.r.&.I v - 4 ; 3 3 3 3 { 3 ",
"3 3 x B x 3 3 ; g E R R R E :.Y I Y P E r.r.r.u.6.+.0.r.r.u.r.u.u.u.r.3.+.:.0.r.r.r.u.r.u.u.u.r.r.u.u.u.r.0.E s $ + 3 3 3 3 3 3 ",
"3 3 x x x x 3 - i P I L L P U G I &.:.7.r.u.r.7.+.&.0.u.u.u.u.r.r.u.r.,.*.q.u.r.r.u.u.r.7.7.7.r.r.u.r.u.r.u.w.=.T 8 ; 3 3 3 3 3 ",
"3 3 x x x x 3 - r G J J J J J L ,.r.r.r.u.r.r.$.+.8.r.u.r.u.r.r.0.q.3.+.,.r.r.u.u.r.7.+.K K ' 0.r.u.r.u.u.u.r.r.<.t ; 3 3 x x 3 ",
"3 { 3 3 2 2 4 < Z :.6.6.5.5.7.7.t.t.u.t.u.u.t.q.t.t.t.t.t.t.0.&.+.+.=.9.r.r.u.r.2.$.J G J T } T @.w.t.t.u.t.u.u.3.t ; ; m B x 2 ",
"3 3 3 2 7 4 2 : Z 7.t.t.7.9.t.e.t.t.u.u.t.t.e.t.e.7.7.7.7.6.} 7.0.r.r.u.r.u.r.=.L J G U R 7.7.T L 1.u.u.t.u.t.u.2.t : 5 z x 2 4 ",
"3 3 k 2 N 5 ; + D 1.6.1.' | 5.5.7.7.t.t.u.t.3.3.3.&.=.&.&.&.&.0.u.r.q.r.r.u.9.U L L R R *.t.t.E L 2.u.t.u.t.t.t.7.J a & 2 5 o.2 ",
"3 k B k 4 - $ 8 U 1.=.=.+.} -.-.} &.7.t.t.t.<.=.<.q.q.7.q.q.r.r.r.7.*.r.r.u.9.L J T 7.w.t.t.7.T U 7.t.t.0.0.t.w.t.7.E # ; 2 2 4 ",
"3 3 k 3 ; % F Y 6.e.r.e.e.e.e.e.7.&.<.q.u.u.t.t.e.q.=.R R R <.q.r.6.&.r.u.r.r.R H T 7.t.r.r.7.U *.t.2.R R T R R ,.8.J o ; 4 4 2 ",
"3 3 3 2 > K >.0.u.u.u.u.t.u.u.t.t.<.<.t.t.t.q.0.q.=.U J L J U R 0.6.&.r.r.u.u.5.J U } w.u.0.E L -.w.T J L L J J U E &   ; B 5 2 ",
"3 3 3 ; # J T 6.9.9.7.t.t.t.t.t.t.1.>.e.u.q.T U U U L U E } } &.r.q.*.0.u.r.u.r.} J U } q.E L R 7.5.L E E R R L G J # + ; 3 2 4 ",
"3 3 4 ; o Z J I U I I +.t.u.u.t.e.<.<.e.u.7.J J L U R =.q.t.t.r.r.r.1.,.9.r.r.u.7.J H R 7.E R 4.t.1.L 7.0.7.3.E I G > ; 4 3 4 2 ",
"3 3 3 3 4 , I >.1.:.Y L #.6.7.t.t.3.<.q.u.7.J L Y 4.q.t.u.u.r.u.r.0.r.1.} } 6.u.t.%.J Y 0.0.0.r.8.U :.t.u.t.u.5.T e : 5 k k 2 4 ",
"3 3 3 x z # U e.u.u.6.T J J L 7.t.1.>.t.u.7.K L E 0.u.t.u.r.u.u.:.U q.r.q.=.2.q.t.t.0.0.t.u.u.u.4.L 7.u.t.u.u.8.Y & ; x x k 2 2 ",
"3 3 x B z @ J 1.r.u.e.+.T Y J &.q.1.=.0.u.9.J Y 4.u.u.r.u.u.r.0.U L 9.u.u.q.| ' 0.u.u.u.t.t.t.u.8.L 4.u.u.t.q.E G > z B x 5 4 2 ",
"3 k x x 4 1 , Y 2.r.r.e.q.6.U U 7.7.*.7.t.7.J U 0.u.r.r.r.u.u.7.U L 6.u.t.u.q.:.<.r.t.r.q.4.3.3.:.T @.q.t.u.1.T r 5 x x 2 2 2 4 ",
"3 k k 3 3 2 : Z E 9.t.u.t.e.R L 7.t.e.e.u.7.J U 0.0.r.r.q.t.6.E L L q.u.r.u.u.0.} <.<.<.<.>.=.=.} <.R } e.e.} G > j k 3 4 2 2 5 ",
"3 3 3 3 3 3 < r U :.e.u.t.t.3.L E e.u.t.u.0.E R R R } =.R R R R R E r.r.u.r.u.r.<.=.>.>.<.r.t.r.<.>.:.U 4.1.T t : 3 3 3 2 4 5 2 ",
"3 3 3 3 3 3 < > Z Y 1.e.t.u.3.J U 9.t.u.t.u.q.7.E Y L L Y E } 6.0.r.r.u.r.u.r.r.0.4.4.0.0.0.r.u.q.+.=.K R E Z 6 ; 4 3 3 3 3 4 2 ",
"3 x 3 3 3 3 3 2 , Z T 6.t.t.7.L U 0.u.t.u.t.u.e.r.4.%.} 4.t.t.y.r.r.u.r.u.u.5.T U U U U U U } 4.q.} } R K F y j 3 x 3 3 3 3 3 3 ",
"3 3 3 V 3 3 3 3 - # S &.t.r.5.J U 0.u.u.u.r.r.u.u.u.r.r.t.y.u.q.:.r.r.u.r.r.T G L I L I L J J I &.5.} } E H 4 2 3 3 3 V 3 3 3 3 ",
"3 3 3 3 3 { 3 3 2 + a Y ,.r.*.P ,.u.u.r.u.u.u.u.r.u.r.9.t.q.6.%.6.u.u.u.u.7.U L :.,.R 3.E U L G J 4.5.R K q j 3 3 3 3 3 3 { 3 3 ",
"3 3 3 3 3 3 3 3 2 + o d Y &.J G O.$.1.u.r.r.u.7.7.3.$.O.%.} ' +.0.u.r.r.7.T L Y 6.7.E 0.&.Y U L J $.q.Y 0 z l 3 3 4 3 3 3 3 3 3 ",
"B 3 3 3 3 3 3 3 3 2 O o s G d % $ > H :.9.9.3.} &.:.7.0.y.u.| r.r.u.r.0.R G I :.r.e.0.e.,.+.E T G J U y j k 3 3 M 4 3 3 3 3 3 3 ",
"3 3 3 3 3 3 3 3 3 3 2 + # + @ 2 2 j < Z T +.&.+.7.7.0.0.r.0.r.0.0.:.T T J K R 7.u.r.u.u.r.r.0.E L a 1 2 ..2 3 3 3 3 3 3 3 3 3 3 ",
"3 3 [ 3 3 3 3 3 3 x x 2 < C 2 5 3 3 - w Z +.,.U U I I L L I L I I G $ # e Z R 7.r.u.u.r.u.r.9.T Z : ; ..o...3 3 3 3 [ 3 3 3 3 3 ",
"3 3 3 3 3 3 3 3 3 x B x 3 3 3 3 3 3 3 - A Z H 1 - - : : : : : : : 5 @ - O 8 H } ' e.u.r.0.5.Y u - < 5 3 ..3 B 3 3 3 3 3 3 3 3 3 ",
"3 3 3 3 3 3 3 3 3 3 x x k 3 3 3 3 3 3 3 7 1 < ; 3 3 2 2 3 2 2 2 2 2 2 2 ; - 5 l K 7.0.3.R S u < 3 3 3 3 4 3 3 3 3 3 3 3 3 3 3 3 ",
"3 3 4 2 3 3 3 3 3 3 3 k k 3 3 3 3 3 3 3 3 3 2 3 3 3 3 k k 3 3 3 7 2 3 3 x B j . r U P s p < 3 3 3 3 3 3 3 3 3 3 3 3 3 3 3 3 3 3 ",
"3 2 2 k k k 3 3 3 ` 3 3 3 3 3 3 3 3 3 3 3 3 { 3 3 { 3 k x x 3 3 3 3 3 3 x x 2 - X * > ; ; 3 3 3 3 3 3 3 3 3 { 3 3 3 3 z k k 3 3 ",
"3 3 2 x B m 3 3 ` [ ` 3 3 3 3 3 3 3 3 3 x x 3 3 3 3 3 3 x x k 3 3 3 3 3 3 3 o.3 ) ] _ 3 3 3 3 3 3 3 3 3 x x 3 3 3 3 3 x M x 3 3 ",
"3 { 2 x x x 3 3 3 ` 3 3 3 3 3 3 3  .3 k x x 3 3 3 3 3 3 4 k k 3 3 { 3 3 3 3 3 3 3 ` 3 4 3 3 3 3 3  .3 k x x 3 3 3 { 3 x x x 3 3 ",
"3 3 3 k k k Q 3 3 3 2 B 3 3 3 3 3 3 3 k k k 3 3 3 3 3 3 3 3 3 3 3 3 3 3 3 3 3 3 3 3 3 M 3 3 3 3 3 3 3 k k k 3 3 3 3 3 k l k Q 2 ",
"3 3 3 3 3 Q [ Q 3 3 2 3 3 3 3 3 3 3 3 3 3 3 3 3 3 3 3 3 3 3 3 3 3 3 3 3 3 B 3 3 3 3 3 3 3 3 3 3 3 3 3 3 3 3 3 3 3 3 3 3 4 Q [ Q ",
"3 3 3 m k 3 Q 3 3 3 3 3 3 3 3 3 3 3 3 3 3 3 3 3 3 3 3 3 3 3 3 3 3 3 7 4 3 3 3 3 3 3 3 3 3 3 3 3 3 3 3 3 3 3 3 3 3 3 3 x k 4 Q 3 ",
"3 3 2 2 3 3 3 3 3 3 3 3 3 3 3 3 3 3 3 3 3 3 3 3 3 3 3 3 x x 3 3 3 3 N 3 3 3 3 3 3 3 3 3 3 3 3 3 3 3 3 3 3 3 3 3 3 3 3 3 3 3 3 3 "
};
